<svg xmlns="http://www.w3.org/2000/svg" xmlns:xlink="http://www.w3.org/1999/xlink" width="175" height="175" viewBox="0 0 175 175">
  <defs>
    <clipPath id="clip-path">
      <rect id="Rectángulo_13" data-name="Rectángulo 13" width="165" height="115" transform="translate(0.029 0.451)" fill="#fff"/>
    </clipPath>
  </defs>
  <g id="css" transform="translate(-330 -2602.865)">
    <circle id="Elipse_7" data-name="Elipse 7" cx="87.5" cy="87.5" r="87.5" transform="translate(330 2602.865)" fill="#fff"/>
    <g id="Enmascarar_grupo_1" data-name="Enmascarar grupo 1" transform="translate(335.971 2635.414)" clip-path="url(#clip-path)">
      <g id="css-2" data-name="css" transform="translate(31.333 0.293)">
        <path id="Trazado_27" data-name="Trazado 27" d="M27.275,113.716,18.019,9.857H119.763L110.494,113.7,68.829,125.251Z" transform="translate(-18.019 -9.857)" fill="#1572b6"/>
        <path id="Trazado_28" data-name="Trazado 28" d="M78.857,118.087l33.67-9.335,7.921-88.738H78.857Z" transform="translate(-27.985 -11.521)" fill="#33a9dc"/>
        <path id="Trazado_29" data-name="Trazado 29" d="M78.857,59.962H95.713l1.162-13.044H78.857V34.18H110.8l-.3,3.416-3.128,35.1H78.857Z" transform="translate(-27.985 -13.842)" fill="#fff"/>
        <path id="Trazado_30" data-name="Trazado 30" d="M73.478,101.837l-.058.016L59.235,98.02l-.907-10.159H45.54l1.784,20,26.091,7.245.062-.016Z" transform="translate(-22.527 -22.635)" fill="#ebebeb"/>
        <path id="Trazado_31" data-name="Trazado 31" d="M94.635,79.6,93.1,96.659,78.9,100.492v13.254l26.112-7.237.194-2.151L107.415,79.6Z" transform="translate(-27.991 -21.282)" fill="#fff"/>
        <path id="Trazado_32" data-name="Trazado 32" d="M72.66,34.18V46.918H41.891l-.256-2.864L41.054,37.6l-.3-3.416Z" transform="translate(-21.742 -13.842)" fill="#ebebeb"/>
        <path id="Trazado_33" data-name="Trazado 33" d="M75.89,65.013V77.751H61.882l-.256-2.864-.577-6.458-.3-3.416Z" transform="translate(-25.018 -18.892)" fill="#ebebeb"/>
      </g>
    </g>
  </g>
</svg>
