<svg xmlns="http://www.w3.org/2000/svg" xmlns:xlink="http://www.w3.org/1999/xlink" width="52" height="52" viewBox="0 0 52 52">
  <defs>
    <clipPath id="clip-path">
      <rect id="Rect치ngulo_15" data-name="Rect치ngulo 15" width="34" height="34" transform="translate(0.088 -0.061)" fill="#fff"/>
    </clipPath>
  </defs>
  <g id="ex" transform="translate(-1316 -2692.256)">
    <rect id="Rect치ngulo_16" data-name="Rect치ngulo 16" width="52" height="52" rx="26" transform="translate(1316 2692.256)" fill="#fff"/>
    <g id="Enmascarar_grupo_3" data-name="Enmascarar grupo 3" transform="translate(1324.912 2701.317)" clip-path="url(#clip-path)">
      <path id="expressjs" d="M34.027,19.229a2.169,2.169,0,0,1-2.69-1.018l-4.885-6.759-.706-.936-5.7,7.717a2.079,2.079,0,0,1-2.552,1l7.305-9.806L17.993.574a2.26,2.26,0,0,1,2.7.936l5.067,6.843,5.1-6.806A2.028,2.028,0,0,1,33.39.608L30.753,4.1,27.18,8.756a.963.963,0,0,0,.024,1.409ZM.009,9.268l.6-2.939C2.233.512,8.9-1.905,13.5,1.689c2.687,2.114,3.355,5.1,3.222,8.454H1.574c-.227,6.029,4.112,9.668,9.644,7.812a5.736,5.736,0,0,0,3.656-4.073c.29-.953.771-1.1,1.666-.829a7.642,7.642,0,0,1-3.669,5.607A8.888,8.888,0,0,1,2.52,17.332,9.2,9.2,0,0,1,.191,11.9c-.043-.336-.128-.656-.191-.978q.008-.825.009-1.65Zm1.593-.4H15.289c-.089-4.36-2.8-7.456-6.514-7.483C4.7,1.349,1.778,4.372,1.6,8.864h0Z" transform="translate(0 7.143)"/>
    </g>
  </g>
</svg>
