<svg xmlns="http://www.w3.org/2000/svg" xmlns:xlink="http://www.w3.org/1999/xlink" width="87" height="87" viewBox="0 0 87 87">
  <defs>
    <clipPath id="clip-path">
      <rect id="Rect치ngulo_19" data-name="Rect치ngulo 19" width="61" height="62" transform="translate(-0.156 -0.383)" fill="#fff"/>
    </clipPath>
  </defs>
  <g id="firebase" transform="translate(-1222 -2822.064)">
    <rect id="Rect치ngulo_20" data-name="Rect치ngulo 20" width="87" height="87" rx="43.5" transform="translate(1222 2822.064)" fill="#fff"/>
    <g id="Grupo_6" data-name="Grupo 6" transform="translate(1235.156 2832.448)">
      <g id="Enmascarar_grupo_5" data-name="Enmascarar grupo 5" transform="translate(0)" clip-path="url(#clip-path)">
        <g id="firebase-2" data-name="firebase" transform="translate(8.296 0)">
          <path id="Trazado_44" data-name="Trazado 44" d="M32.73,60.638l.371-.518L50.614,26.9l.037-.352-7.719-14.5a1.432,1.432,0,0,0-2.679.452Z" transform="translate(-32.73 -11.289)" fill="#ffc24a"/>
          <path id="Trazado_45" data-name="Trazado 45" d="M33.294,60.648l.28-.546L50.905,27.225l-7.7-14.556a1.31,1.31,0,0,0-2.474.45Z" transform="translate(-33.076 -11.692)" fill="#ffa712"/>
          <path id="Trazado_46" data-name="Trazado 46" d="M84.58,51.112l5.747-5.9L84.578,34.253a1.48,1.48,0,0,0-2.609,0L78.9,40.109v.5Z" transform="translate(-61.032 -24.888)" fill="#f4bd62"/>
          <path id="Trazado_47" data-name="Trazado 47" d="M84.568,51.206l5.588-5.721L84.568,34.829a1.286,1.286,0,0,0-2.345-.1l-3.088,5.959-.092.3Z" transform="translate(-61.122 -25.223)" fill="#ffa50e"/>
          <path id="Trazado_48" data-name="Trazado 48" d="M32.741,84.7l.168-.17.609-.247,22.4-22.321.284-.773L50.619,50.54Z" transform="translate(-32.737 -35.352)" fill="#f6820c"/>
          <path id="Trazado_49" data-name="Trazado 49" d="M56.994,91.664,77.276,80.355l-5.8-35.661a1.387,1.387,0,0,0-2.347-.756L32.73,80.405,52.891,91.662a4.208,4.208,0,0,0,4.1,0" transform="translate(-32.73 -31.057)" fill="#fde068"/>
          <path id="Trazado_50" data-name="Trazado 50" d="M77.436,80.531,71.689,45.139a1.216,1.216,0,0,0-2.112-.771L33.294,80.607,53.233,91.744a4.175,4.175,0,0,0,4.068,0Z" transform="translate(-33.076 -31.326)" fill="#fcca3f"/>
          <path id="Trazado_51" data-name="Trazado 51" d="M56.994,149.175a4.208,4.208,0,0,1-4.1,0l-20-11.088-.166.17,20.161,11.257a4.208,4.208,0,0,0,4.1,0l20.284-11.307-.05-.306Z" transform="translate(-32.73 -88.908)" fill="#eeab37"/>
        </g>
      </g>
    </g>
  </g>
</svg>
