<svg id="eR4Cc8EGdSs1" xmlns="http://www.w3.org/2000/svg" xmlns:xlink="http://www.w3.org/1999/xlink" viewBox="0 0 1019.484200 436.681230" shape-rendering="geometricPrecision" text-rendering="geometricPrecision"><path id="eR4Cc8EGdSs2" d="M314.028080,475.273640C314.053468,471.620250,312.034402,468.259200,308.797069,466.565807C305.559735,464.872414,301.647384,465.130842,298.660918,467.235344C295.674452,469.339846,294.115024,472.937271,294.620740,476.555580L266.606350,513.241650C264.162127,518.129639,264.885491,524.006459,268.442100,528.155820L270.639690,530.719360L280.722690,528.702690L292.150630,518.619380L290.806000,507.191640L304.922700,485.008400L304.904450,484.992480C310.032810,484.665890,314.025815,480.412388,314.028080,475.273640Z" transform="matrix(0.99631726486089 -0.08574326644182 0.08574326644182 0.99631726486089 -130.26798786771744 -208.63254825015218)" fill="rgb(255,185,185)" stroke="none" stroke-width="1"/><polygon id="eR4Cc8EGdSs3" points="30.041000,422.968000 25.468000,405.984000 88.800000,380.265000 95.549000,405.331000 30.041000,422.968000" fill="rgb(255,184,184)" stroke="none" stroke-width="1"/><path id="eR4Cc8EGdSs4" d="M105.002000,663.391280L90.257900,608.629160L90.950540,608.442650C102.722170,605.273671,114.834124,612.246627,118.004540,624.017870L118.004910,624.019220L127.010000,657.466090Z" transform="matrix(1 0 0 1 -90.25790000000001 -231.65899999999999)" fill="rgb(47,46,65)" stroke="none" stroke-width="1"/><polygon id="eR4Cc8EGdSs5" points="117.278000,420.254000 103.054000,409.910000 136.185000,350.121000 157.179000,365.388000 117.278000,420.254000" fill="rgb(255,184,184)" stroke="none" stroke-width="1"/><path id="eR4Cc8EGdSs6" d="M201.136800,668.340610L155.270680,634.985300L155.692550,634.405150C162.862844,624.546124,176.667438,622.365665,186.527350,629.534740L186.528490,629.535560L214.541880,649.908000Z" transform="matrix(1 0 0 1 -90.25790000000001 -231.65899999999999)" fill="rgb(47,46,65)" stroke="none" stroke-width="1"/><path id="eR4Cc8EGdSs7" d="M328.450250,568.363570L292.655250,533.590940C286.196378,527.316542,276.104399,526.752810,268.986920,532.268840L201.400600,607.352500L207.450780,616.763340L271.983560,573.069000L315.677930,630.207670L357.355570,609.369260Z" transform="matrix(1 0 0 1 -90.25790000000001 -231.65899999999999)" fill="rgb(47,46,65)" stroke="none" stroke-width="1"/><path id="eR4Cc8EGdSs8" d="M312.989390,575.758070L286.772660,573.741400L267.786660,569.138680C265.590574,565.712533,261.497915,564.010190,257.519836,564.868190C253.541757,565.726190,250.514631,568.964144,249.926004,572.990903C249.337376,577.017663,251.311003,580.986621,254.877034,582.947412C258.443065,584.908202,262.851758,584.448578,265.936660,581.794400L265.933890,581.808040L277.361820,586.513570L326.433630,603.319080L332.483630,598.613550Z" transform="matrix(1 0 0 1 -90.25790000000001 -231.65899999999999)" fill="rgb(255,185,185)" stroke="none" stroke-width="1"/><polygon id="eR4Cc8EGdSs9" points="285.920000,416.699000 271.131000,426.110000 253.653000,426.110000 172.315000,395.860000 53.332000,417.371000 49.971000,391.826000 158.871000,344.099000 254.326000,375.693000 285.920000,416.699000" fill="rgb(47,46,65)" stroke="none" stroke-width="1"/><g id="eR4Cc8EGdSs10"><circle id="eR4Cc8EGdSs11" r="26.216600" transform="matrix(1 0 0 1 254.32599999999999 227.13200000000001)" fill="rgb(255,185,185)" stroke="none" stroke-width="1"/><path id="eR4Cc8EGdSs12" d="M324.192520,439.298660L321.352020,440.391520C320.481182,439.801901,319.880237,438.890491,319.681386,437.857792C319.482536,436.825092,319.702069,435.755697,320.291690,434.884860Q320.314640,434.850930,320.338300,434.817510L315.089130,434.571870C321.905219,425.493885,332.286455,419.774049,343.601801,418.862006C354.917147,417.949964,366.080478,421.933260,374.262540,429.802360C374.501540,428.979260,377.106730,430.580660,378.170370,432.204450C378.527760,430.865080,380.970470,437.339660,381.834440,441.916330C382.234440,440.392490,383.772350,442.852530,382.425000,445.213030C383.278700,445.088310,383.664310,447.272500,383.003430,448.489360C383.937430,448.050580,383.779970,450.657910,382.767340,452.400360C384.100040,452.281950,382.653640,479.731580,362.653640,477.731580C361.261280,471.334090,361.653640,471.731580,360.014070,463.505190C359.250950,462.695190,358.415250,461.957400,357.580920,461.220940L353.068330,457.237640C347.821030,452.605820,343.047700,446.889200,336.057400,445.158090C331.253470,443.968410,328.215970,443.699820,330.833960,438.286580C328.468640,439.273640,326.259850,440.741510,323.873330,441.658270C323.905390,440.901870,324.238940,440.055450,324.192520,439.298660Z" transform="matrix(1 0 0 1 -90.25790000000001 -231.65899999999999)" fill="rgb(47,46,65)" stroke="none" stroke-width="1"/></g><path id="eR4Cc8EGdSs13" d="M412.417380,563.463160C412.417066,579.285303,409.923933,595.008604,405.029680,610.054750L403.066820,616.091320L393.655720,659.113420L383.572440,661.802280L376.178020,652.391210L361.389180,641.635710L350.633660,624.158000L341.410820,608.791000L338.533700,603.991330L328.450390,553.574840L290.133860,532.063840L277.361690,530.047170L280.050580,522.652750L291.478320,507.191690L302.906000,505.847200L306.267110,503.158320L308.955990,504.502750L323.778560,510.212880L371.835440,489.908880L378.866860,491.058390L403.066740,511.225000C409.253255,527.946389,412.419346,545.634032,412.417380,563.463160Z" transform="matrix(1 0 0 1 -90.25790000000001 -231.65899999999999)" fill="rgb(204,204,204)" stroke="none" stroke-width="1"/><polygon id="eR4Cc8EGdSs14" style="isolation:isolate" points="314.825000,325.949000 289.281000,342.754000 251.153000,377.131000 248.276000,372.332000 240.209000,331.999000 242.226000,331.999000 263.065000,293.683000 314.825000,325.949000" opacity="0.1" fill="rgb(0,0,0)" stroke="none" stroke-width="1"/><polygon id="eR4Cc8EGdSs15" points="263.065000,289.649000 242.226000,327.965000 230.126000,341.410000 219.371000,344.099000 248.276000,375.693000 289.281000,338.721000 314.825000,321.915000 263.065000,289.649000" fill="rgb(204,204,204)" stroke="none" stroke-width="1"/><circle id="eR4Cc8EGdSs16" r="4.705540" transform="matrix(1 0 0 1 267.43400000000003 230.15700000000001)" fill="rgb(255,185,185)" stroke="none" stroke-width="1"/><g id="eR4Cc8EGdSs17" transform="matrix(0 0 0 0 50.95127868500001 138.71066665500001)"><rect id="eR4Cc8EGdSs18" style="isolation:isolate" width="21.610100" height="21.610100" rx="0" ry="0" transform="matrix(0.06645000000000 -0.99779000000000 0.99779000000000 0.06645000000000 46.56226434000013 140.58484114000044)" fill="rgb(230,230,230)" stroke="none" stroke-width="1"/><path id="eR4Cc8EGdSs19" d="M124.343540,362.131340L150.526360,363.875020L148.782670,390.057840L122.599850,388.314160ZM149.312160,364.937600L125.406110,363.345540L123.814050,387.251540L147.720100,388.843600Z" transform="matrix(1 0 0 1 -90.25790000000001 -231.65899999999999)" fill="rgb(204,204,204)" stroke="none" stroke-width="1"/></g><g id="eR4Cc8EGdSs20" transform="matrix(0 0 0 0 151.87776946999998 62.80077362000000)"><rect id="eR4Cc8EGdSs21" style="isolation:isolate" width="21.610100" height="21.610100" rx="0" ry="0" transform="matrix(0.97768500000000 -0.21007500000000 0.21007500000000 0.97768500000000 148.72266206500001 59.62308714500000)" fill="rgb(230,230,230)" stroke="none" stroke-width="1"/><path id="eR4Cc8EGdSs22" d="M245.278420,276.509570L250.790970,302.164830L225.135710,307.677370L219.623170,282.022110ZM249.435850,301.289070L244.402650,277.864710L220.978280,282.897900L226.011470,306.322280Z" transform="matrix(1 0 0 1 -90.25790000000001 -231.65899999999999)" fill="rgb(204,204,204)" stroke="none" stroke-width="1"/></g><g id="eR4Cc8EGdSs23" transform="matrix(0 0 0 0 145.01152420000000 161.13919067500001)"><rect id="eR4Cc8EGdSs24" style="isolation:isolate" width="21.610100" height="21.610100" rx="0" ry="0" transform="matrix(0.72983900000000 -0.68361900000000 0.68361900000000 0.72983900000000 131.87711412299996 171.32038322899990)" fill="rgb(230,230,230)" stroke="none" stroke-width="1"/><path id="eR4Cc8EGdSs25" d="M253.814560,385.996640L234.663000,403.935380L216.724270,384.783820L235.875830,366.845100ZM234.715710,402.322740L252.201920,385.943910L235.823080,368.457730L218.336870,384.836570Z" transform="matrix(1 0 0 1 -90.25790000000001 -231.65899999999999)" fill="rgb(204,204,204)" stroke="none" stroke-width="1"/></g><g id="eR4Cc8EGdSs26" transform="matrix(0.99999855410997 -0.00170052285180 0.00003433143512 0.02018872339676 15.86411597330812 386.27210474237830)"><path id="eR4Cc8EGdSs27" d="M1053.535000,231.659390L414.152230,231.659390C409.484817,231.659385,405.008567,233.513504,401.708205,236.813861C398.407844,240.114219,396.553720,244.590467,396.553720,249.257880L396.553720,605.510080C396.553712,610.177503,398.407831,614.653764,401.708192,617.954136C405.008553,621.254508,409.484807,623.108642,414.152230,623.108650L1053.535000,623.108650C1063.254401,623.108622,1071.133516,615.229481,1071.133510,605.510080L1071.133510,249.257880C1071.133493,239.538501,1063.254379,231.659396,1053.535000,231.659390Z" transform="matrix(1 0 0 1 -90.25790000000001 -231.65899999999999)" fill="rgb(63,61,86)" stroke="none" stroke-width="1"/><rect id="eR4Cc8EGdSs28" width="627.391000" height="353.913000" rx="0" ry="0" transform="matrix(1 0 0 1 329.89022793000447 31.27449999999993)" fill="rgb(255,255,255)" stroke="none" stroke-width="1"/><circle id="eR4Cc8EGdSs29" r="6.434770" transform="matrix(1 0 0 1 643.04899999999998 15.01450000000000)" fill="rgb(255,255,255)" stroke="none" stroke-width="1"/><polygon id="eR4Cc8EGdSs30" style="isolation:isolate" points="777.858000,385.015000 329.890000,385.015000 329.890000,31.102000 777.858000,385.015000" transform="matrix(1 0 0 1 0.00000000066314 0.17249961000061)" fill="rgb(242,242,242)" stroke="none" stroke-width="1"/><g id="eR4Cc8EGdSs31" transform="matrix(1 0 0 1 -0.66021016763102 0.92348834833575)"><circle id="eR4Cc8EGdSs32" r="60.306800" transform="matrix(1 0 0 1 428.05800000066318 299.23285961000062)" fill="rgb(30,50,102)" stroke="none" stroke-width="1"/><path id="eR4Cc8EGdSs33" d="M531.740820,575.210000C490.310757,575.209978,456.725072,541.624260,456.725090,500.194197C456.725108,458.764134,490.310824,425.178445,531.740887,425.178460C573.170950,425.178475,606.756641,458.764187,606.756630,500.194250C606.756622,520.089672,598.853189,539.170226,584.784996,553.238408C570.716802,567.306590,551.636242,575.210008,531.740820,575.210000ZM531.740820,426.159000C490.852324,426.158994,457.705640,459.305657,457.705620,500.194153C457.705600,541.082649,490.852251,574.229345,531.740747,574.229380C572.629243,574.229415,605.775950,541.082776,605.776000,500.194280C605.776008,480.558917,597.975893,461.727766,584.091594,447.843469C570.207295,433.959171,551.376143,426.159059,531.740780,426.159070Z" transform="matrix(1 0 0 1 -90.25790000000001 -231.65899999999999)" fill="rgb(63,61,86)" stroke="none" stroke-width="1"/></g><g id="eR4Cc8EGdSs34" transform="matrix(-0.02791538473976 0 0 1.16685283063659 804.59000767120119 -28.70588051404533)"><rect id="eR4Cc8EGdSs35" width="169.497000" height="5.248230" rx="0" ry="0" transform="matrix(1 0 0 1 697.99099999999999 148.79949999999999)" fill="rgb(63,61,86)" stroke="none" stroke-width="1"/><rect id="eR4Cc8EGdSs36" width="169.497000" height="5.248230" rx="0" ry="0" transform="matrix(1 0 0 1 697.99099999999999 169.41849999999999)" fill="rgb(63,61,86)" stroke="none" stroke-width="1"/><rect id="eR4Cc8EGdSs37" width="169.497000" height="5.248230" rx="0" ry="0" transform="matrix(1 0 0 1 697.99099999999999 190.03850000000000)" fill="rgb(63,61,86)" stroke="none" stroke-width="1"/><rect id="eR4Cc8EGdSs38" width="58.605200" height="12.245900" rx="0" ry="0" transform="matrix(1 0 0 1 753.43700000000001 215.14249999999998)" fill="rgb(63,61,86)" stroke="none" stroke-width="1"/></g><g id="eR4Cc8EGdSs39"><rect id="eR4Cc8EGdSs40" width="24.491800" height="24.491700" rx="0" ry="0" transform="matrix(1 0 0 1 888.40099999999995 52.45409999999998)" fill="rgb(30,50,102)" stroke="none" stroke-width="1"/><path id="eR4Cc8EGdSs41" d="M1014.522250,319.803900L984.782250,319.803900L984.782250,290.063900L1014.522250,290.063900ZM986.075350,318.510900L1013.229160,318.510900L1013.229160,291.357000L986.075290,291.357000Z" transform="matrix(1 0 0 1 -90.25790000000001 -231.65899999999999)" fill="rgb(204,204,204)" stroke="none" stroke-width="1"/></g></g><path id="eR4Cc8EGdSs42" d="M1088.749180,610.239080L1027.519810,610.239080L1027.519810,605.827520C1027.519818,605.595546,1027.427674,605.373069,1027.263649,605.209033C1027.099624,605.044997,1026.877154,604.952838,1026.645180,604.952830L1005.652180,604.952830C1005.420195,604.952809,1005.197704,605.044946,1005.033654,605.208972C1004.869604,605.372998,1004.777433,605.595475,1004.777420,605.827460L1004.777420,610.239080L991.657000,610.239080L991.657000,605.827520C991.657003,605.595535,991.564848,605.373051,991.400809,605.209014C991.236770,605.044977,991.014285,604.952825,990.782300,604.952830L969.789400,604.952830C969.557416,604.952825,969.334932,605.044978,969.170895,605.209015C969.006858,605.373052,968.914705,605.595536,968.914710,605.827520L968.914710,605.827520L968.914710,610.239080L955.794160,610.239080L955.794160,605.827520C955.794165,605.595536,955.702012,605.373052,955.537975,605.209015C955.373938,605.044978,955.151454,604.952825,954.919470,604.952830L933.926470,604.952830C933.694485,604.952825,933.472000,605.044977,933.307961,605.209014C933.143922,605.373051,933.051767,605.595535,933.051770,605.827520L933.051770,605.827520L933.051770,610.239080L919.931250,610.239080L919.931250,605.827520C919.931253,605.595535,919.839098,605.373051,919.675059,605.209014C919.511020,605.044977,919.288535,604.952825,919.056550,604.952830L898.063630,604.952830C897.831656,604.952822,897.609179,605.044966,897.445143,605.208991C897.281107,605.373016,897.188948,605.595486,897.188940,605.827460L897.188940,610.239080L884.068400,610.239080L884.068400,605.827520C884.068403,605.595535,883.976248,605.373051,883.812209,605.209014C883.648170,605.044977,883.425685,604.952825,883.193700,604.952830L862.200780,604.952830C861.968796,604.952825,861.746312,605.044978,861.582275,605.209015C861.418238,605.373052,861.326085,605.595536,861.326090,605.827520L861.326090,605.827520L861.326090,610.239080L848.205480,610.239080L848.205480,605.827520C848.205485,605.595536,848.113332,605.373052,847.949295,605.209015C847.785258,605.044978,847.562774,604.952825,847.330790,604.952830L826.337870,604.952830C826.105885,604.952825,825.883400,605.044977,825.719361,605.209014C825.555322,605.373051,825.463167,605.595535,825.463170,605.827520L825.463170,605.827520L825.463170,610.239080L812.342630,610.239080L812.342630,605.827520C812.342633,605.595535,812.250478,605.373051,812.086439,605.209014C811.922400,605.044977,811.699915,604.952825,811.467930,604.952830L647.023470,604.952830C646.791486,604.952825,646.569002,605.044978,646.404965,605.209015C646.240928,605.373052,646.148775,605.595536,646.148780,605.827520L646.148780,605.827520L646.148780,610.239080L633.028170,610.239080L633.028170,605.827520C633.028175,605.595536,632.936022,605.373052,632.771985,605.209015C632.607948,605.044978,632.385464,604.952825,632.153480,604.952830L611.160620,604.952830C610.928635,604.952825,610.706150,605.044977,610.542111,605.209014C610.378072,605.373051,610.285917,605.595535,610.285920,605.827520L610.285920,605.827520L610.285920,610.239080L597.165320,610.239080L597.165320,605.827520C597.165328,605.595546,597.073184,605.373069,596.909159,605.209033C596.745134,605.044997,596.522664,604.952838,596.290690,604.952830L575.297690,604.952830C575.065706,604.952825,574.843222,605.044978,574.679185,605.209015C574.515148,605.373052,574.422995,605.595536,574.423000,605.827520L574.423000,605.827520L574.423000,610.239080L561.302400,610.239080L561.302400,605.827520C561.302405,605.595536,561.210252,605.373052,561.046215,605.209015C560.882178,605.044978,560.659694,604.952825,560.427710,604.952830L539.434790,604.952830C539.202805,604.952825,538.980320,605.044977,538.816281,605.209014C538.652242,605.373051,538.560087,605.595535,538.560090,605.827520L538.560090,605.827520L538.560090,610.239080L525.439550,610.239080L525.439550,605.827520C525.439555,605.595536,525.347402,605.373052,525.183365,605.209015C525.019328,605.044978,524.796844,604.952825,524.564860,604.952830L503.571940,604.952830C503.339955,604.952825,503.117470,605.044977,502.953431,605.209014C502.789392,605.373051,502.697237,605.595535,502.697240,605.827520L502.697240,605.827520L502.697240,610.239080L489.576640,610.239080L489.576640,605.827520C489.576643,605.595535,489.484488,605.373051,489.320449,605.209014C489.156410,605.044977,488.933925,604.952825,488.701940,604.952830L467.709000,604.952830C467.225943,604.952824,466.834338,605.344403,466.834310,605.827460L466.834310,610.239080L453.713750,610.239080L453.713750,605.827520C453.713755,605.595541,453.621607,605.373062,453.457576,605.209026C453.293545,605.044989,453.071069,604.952833,452.839090,604.952830L431.846170,604.952830C431.363090,604.952830,430.971476,605.344440,430.971470,605.827520L430.971470,605.827520L430.971470,610.239080L390.735000,610.239080C379.140950,610.239108,369.742130,619.637950,369.742130,631.232000L369.742130,640.724500C369.742158,652.318529,379.140971,661.717338,390.735000,661.717360L1088.749160,661.717360C1100.343204,661.717354,1109.742041,652.318544,1109.742080,640.724500L1109.742080,631.232000C1109.742085,625.664333,1107.530342,620.324702,1103.593409,616.387765C1099.656476,612.450828,1094.316847,610.239080,1088.749180,610.239080Z" transform="matrix(1 0 0 1 -90.25790000000001 -231.65899999999999)" fill="rgb(63,61,86)" stroke="none" stroke-width="1"/><script><![CDATA[!function(t,n){"object"==typeof exports&&"undefined"!=typeof module?module.exports=n():"function"==typeof define&&define.amd?define(n):(t="undefined"!=typeof globalThis?globalThis:t||self).__SVGATOR_PLAYER__=n()}(this,(function(){"use strict";function t(n){return(t="function"==typeof Symbol&&"symbol"==typeof Symbol.iterator?function(t){return typeof t}:function(t){return t&&"function"==typeof Symbol&&t.constructor===Symbol&&t!==Symbol.prototype?"symbol":typeof t})(n)}function n(t,n){if(!(t instanceof n))throw new TypeError("Cannot call a class as a function")}function r(t,n){for(var r=0;r<n.length;r++){var e=n[r];e.enumerable=e.enumerable||!1,e.configurable=!0,"value"in e&&(e.writable=!0),Object.defineProperty(t,e.key,e)}}function e(t,n,e){return n&&r(t.prototype,n),e&&r(t,e),t}function i(t){return(i=Object.setPrototypeOf?Object.getPrototypeOf:function(t){return t.__proto__||Object.getPrototypeOf(t)})(t)}function u(t,n){return(u=Object.setPrototypeOf||function(t,n){return t.__proto__=n,t})(t,n)}function o(t,n){return!n||"object"!=typeof n&&"function"!=typeof n?function(t){if(void 0===t)throw new ReferenceError("this hasn't been initialised - super() hasn't been called");return t}(t):n}function a(t){var n=function(){if("undefined"==typeof Reflect||!Reflect.construct)return!1;if(Reflect.construct.sham)return!1;if("function"==typeof Proxy)return!0;try{return Boolean.prototype.valueOf.call(Reflect.construct(Boolean,[],(function(){}))),!0}catch(t){return!1}}();return function(){var r,e=i(t);if(n){var u=i(this).constructor;r=Reflect.construct(e,arguments,u)}else r=e.apply(this,arguments);return o(this,r)}}function l(t,n,r){return(l="undefined"!=typeof Reflect&&Reflect.get?Reflect.get:function(t,n,r){var e=function(t,n){for(;!Object.prototype.hasOwnProperty.call(t,n)&&null!==(t=i(t)););return t}(t,n);if(e){var u=Object.getOwnPropertyDescriptor(e,n);return u.get?u.get.call(r):u.value}})(t,n,r||t)}var f=Math.abs;function s(t){return t}function c(t,n,r){var e=1-r;return 3*r*e*(t*e+n*r)+r*r*r}function h(){var t=arguments.length>0&&void 0!==arguments[0]?arguments[0]:0,n=arguments.length>1&&void 0!==arguments[1]?arguments[1]:0,r=arguments.length>2&&void 0!==arguments[2]?arguments[2]:1,e=arguments.length>3&&void 0!==arguments[3]?arguments[3]:1;return t<0||t>1||r<0||r>1?null:f(t-n)<=1e-5&&f(r-e)<=1e-5?s:function(i){if(i<=0)return t>0?i*n/t:0===n&&r>0?i*e/r:0;if(i>=1)return r<1?1+(i-1)*(e-1)/(r-1):1===r&&t<1?1+(i-1)*(n-1)/(t-1):1;for(var u,o=0,a=1;o<a;){var l=c(t,r,u=(o+a)/2);if(f(i-l)<1e-5)break;l<i?o=u:a=u}return c(n,e,u)}}function v(){return 1}function y(t){return 1===t?1:0}function d(){var t=arguments.length>0&&void 0!==arguments[0]?arguments[0]:1,n=arguments.length>1&&void 0!==arguments[1]?arguments[1]:0;if(1===t){if(0===n)return y;if(1===n)return v}var r=1/t;return function(t){return t>=1?1:(t+=n*r)-t%r}}function g(t){var n=arguments.length>1&&void 0!==arguments[1]?arguments[1]:2;if(Number.isInteger(t))return t;var r=Math.pow(10,n);return Math.round(t*r)/r}var p=Math.PI/180;function m(t,n,r){return t>=.5?r:n}function b(t,n,r){return 0===t||n===r?n:t*(r-n)+n}function w(t,n,r){var e=b(t,n,r);return e<=0?0:e}function x(t,n,r){return 0===t?n:1===t?r:{x:b(t,n.x,r.x),y:b(t,n.y,r.y)}}function A(t,n,r){return 0===t?n:1===t?r:{x:w(t,n.x,r.x),y:w(t,n.y,r.y)}}function k(t,n,r){var e=function(t,n,r){return Math.round(b(t,n,r))}(t,n,r);return e<=0?0:e>=255?255:e}function _(t,n,r){return 0===t?n:1===t?r:{r:k(t,n.r,r.r),g:k(t,n.g,r.g),b:k(t,n.b,r.b),a:b(t,null==n.a?1:n.a,null==r.a?1:r.a)}}function S(t,n,r){if(0===t)return n;if(1===t)return r;var e=n.length;if(e!==r.length)return m(t,n,r);for(var i=[],u=0;u<e;u++)i.push(_(t,n[u],r[u]));return i}function O(t,n,r){var e=n.length;if(e!==r.length)return m(t,n,r);for(var i=new Array(e),u=0;u<e;u++)i[u]=b(t,n[u],r[u]);return i}function M(t,n){for(var r=[],e=0;e<t;e++)r.push(n);return r}function B(t,n){if(--n<=0)return t;var r=(t=Object.assign([],t)).length;do{for(var e=0;e<r;e++)t.push(t[e])}while(--n>0);return t}var I,j=function(){function t(r){n(this,t),this.list=r,this.length=r.length}return e(t,[{key:"setAttribute",value:function(t,n){for(var r=this.list,e=0;e<this.length;e++)r[e].setAttribute(t,n)}},{key:"removeAttribute",value:function(t){for(var n=this.list,r=0;r<this.length;r++)n[r].removeAttribute(t)}},{key:"style",value:function(t,n){for(var r=this.list,e=0;e<this.length;e++)r[e].style[t]=n}}]),t}(),E=/-./g,F=function(t,n){return n.toUpperCase()};function P(t){return"function"==typeof t?t:m}function R(t){return t?"function"==typeof t?t:Array.isArray(t)?function(t){var n=arguments.length>1&&void 0!==arguments[1]?arguments[1]:s;if(!Array.isArray(t))return n;switch(t.length){case 1:return d(t[0])||n;case 2:return d(t[0],t[1])||n;case 4:return h(t[0],t[1],t[2],t[3])||n}return n}(t,null):function(t,n){var r=arguments.length>2&&void 0!==arguments[2]?arguments[2]:s;switch(t){case"linear":return s;case"steps":return d(n.steps||1,n.jump||0)||r;case"bezier":case"cubic-bezier":return h(n.x1||0,n.y1||0,n.x2||0,n.y2||0)||r}return r}(t.type,t.value,null):null}function q(t,n,r){var e=arguments.length>3&&void 0!==arguments[3]&&arguments[3],i=n.length-1;if(t<=n[0].t)return e?[0,0,n[0].v]:n[0].v;if(t>=n[i].t)return e?[i,1,n[i].v]:n[i].v;var u,o=n[0],a=null;for(u=1;u<=i;u++){if(!(t>n[u].t)){a=n[u];break}o=n[u]}return null==a?e?[i,1,n[i].v]:n[i].v:o.t===a.t?e?[u,1,a.v]:a.v:(t=(t-o.t)/(a.t-o.t),o.e&&(t=o.e(t)),e?[u,t,r(t,o.v,a.v)]:r(t,o.v,a.v))}function T(t,n){var r=arguments.length>2&&void 0!==arguments[2]?arguments[2]:null;return t&&t.length?"function"!=typeof n?null:("function"!=typeof r&&(r=null),function(e){var i=q(e,t,n);return null!=i&&r&&(i=r(i)),i}):null}function N(t,n){return t.t-n.t}function C(n,r,e,i,u){var o,a="@"===e[0],l="#"===e[0],f=I[e],s=m;switch(a?(o=e.substr(1),e=o.replace(E,F)):l&&(e=e.substr(1)),t(f)){case"function":if(s=f(i,u,q,R,e,a,r,n),l)return s;break;case"string":s=T(i,P(f));break;case"object":if((s=T(i,P(f.i),f.f))&&"function"==typeof f.u)return f.u(r,s,e,a,n)}return s?function(t,n,r){var e=arguments.length>3&&void 0!==arguments[3]&&arguments[3];if(e)return t instanceof j?function(e){return t.style(n,r(e))}:function(e){return t.style[n]=r(e)};if(Array.isArray(n)){var i=n.length;return function(e){var u=r(e);if(null==u)for(var o=0;o<i;o++)t[o].removeAttribute(n);else for(var a=0;a<i;a++)t[a].setAttribute(n,u)}}return function(e){var i=r(e);null==i?t.removeAttribute(n):t.setAttribute(n,i)}}(r,e,s,a):null}function z(n,r,e,i){if(!i||"object"!==t(i))return null;var u=null,o=null;return Array.isArray(i)?o=function(t){if(!t||!t.length)return null;for(var n=0;n<t.length;n++)t[n].e&&(t[n].e=R(t[n].e));return t.sort(N)}(i):(o=i.keys,u=i.data||null),o?C(n,r,e,o,u):null}function L(t,n,r){if(!r)return null;var e=[];for(var i in r)if(r.hasOwnProperty(i)){var u=z(t,n,i,r[i]);u&&e.push(u)}return e.length?e:null}function D(t,n){if(!n.duration||n.duration<0)return null;var r=function(t,n){if(!n)return null;var r=[];if(Array.isArray(n))for(var e=n.length,i=0;i<e;i++){var u=n[i];if(2===u.length){var o=null;if("string"==typeof u[0])o=t.getElementById(u[0]);else if(Array.isArray(u[0])){o=[];for(var a=0;a<u[0].length;a++)if("string"==typeof u[0][a]){var l=t.getElementById(u[0][a]);l&&o.push(l)}o=o.length?1===o.length?o[0]:new j(o):null}if(o){var f=L(t,o,u[1]);f&&(r=r.concat(f))}}}else for(var s in n)if(n.hasOwnProperty(s)){var c=t.getElementById(s);if(c){var h=L(t,c,n[s]);h&&(r=r.concat(h))}}return r.length?r:null}(t,n.elements);return r?function(t,n){var r=arguments.length>2&&void 0!==arguments[2]?arguments[2]:1/0,e=arguments.length>3&&void 0!==arguments[3]?arguments[3]:1,i=arguments.length>4&&void 0!==arguments[4]&&arguments[4],u=arguments.length>5&&void 0!==arguments[5]?arguments[5]:1,o=t.length,a=e>0?n:0;i&&r%2==0&&(a=n-a);var l=null;return function(f,s){var c=f%n,h=1+(f-c)/n;s*=e,i&&h%2==0&&(s=-s);var v=!1;if(h>r)c=a,v=!0,-1===u&&(c=e>0?0:n);else if(s<0&&(c=n-c),c===l)return!1;l=c;for(var y=0;y<o;y++)t[y](c);return v}}(r,n.duration,n.iterations||1/0,n.direction||1,!!n.alternate,n.fill||1):null}var V=function(){function t(r,e){var i=arguments.length>2&&void 0!==arguments[2]?arguments[2]:{};n(this,t),this._id=0,this._running=!1,this._rollingBack=!1,this._animations=r,this.duration=e.duration,this.alternate=e.alternate,this.fill=e.fill,this.iterations=e.iterations,this.direction=i.direction||1,this.speed=i.speed||1,this.fps=i.fps||100,this.offset=i.offset||0,this.rollbackStartOffset=0}return e(t,[{key:"_rollback",value:function(){var t=this,n=1/0,r=null;this.rollbackStartOffset=this.offset,this._rollingBack||(this._rollingBack=!0,this._running=!0);this._id=window.requestAnimationFrame((function e(i){if(t._rollingBack){null==r&&(r=i);var u=i-r,o=t.rollbackStartOffset-u,a=Math.round(o*t.speed);if(a>t.duration&&n!=1/0){var l=!!t.alternate&&a/t.duration%2>1,f=a%t.duration;a=(f+=l?t.duration:0)||t.duration}var s=t.fps?1e3/t.fps:0,c=Math.max(0,a);if(c<n-s){t.offset=c,n=c;for(var h=t._animations,v=h.length,y=0;y<v;y++)h[y](c,t.direction)}var d=!1;if(t.iterations>0&&-1===t.fill){var g=t.iterations*t.duration,p=g==a;a=p?0:a,t.offset=p?0:t.offset,d=a>g}a>0&&t.offset>=a&&!d?t._id=window.requestAnimationFrame(e):t.stop()}}))}},{key:"_start",value:function(){var t=this,n=arguments.length>0&&void 0!==arguments[0]?arguments[0]:0,r=-1/0,e=null,i={},u=function u(o){t._running=!0,null==e&&(e=o);var a=Math.round((o-e+n)*t.speed),l=t.fps?1e3/t.fps:0;if(a>r+l&&!t._rollingBack){t.offset=a,r=a;for(var f=t._animations,s=f.length,c=0,h=0;h<s;h++)i[h]?c++:(i[h]=f[h](a,t.direction),i[h]&&c++);if(c===s)return void t._stop()}t._id=window.requestAnimationFrame(u)};this._id=window.requestAnimationFrame(u)}},{key:"_stop",value:function(){this._id&&window.cancelAnimationFrame(this._id),this._running=!1,this._rollingBack=!1}},{key:"play",value:function(){!this._rollingBack&&this._running||(this._rollingBack=!1,this.rollbackStartOffset>this.duration&&(this.offset=this.rollbackStartOffset-(this.rollbackStartOffset-this.offset)%this.duration,this.rollbackStartOffset=0),this._start(this.offset))}},{key:"stop",value:function(){this._stop(),this.offset=0,this.rollbackStartOffset=0;var t=this.direction,n=this._animations;window.requestAnimationFrame((function(){for(var r=0;r<n.length;r++)n[r](0,t)}))}},{key:"reachedToEnd",value:function(){return this.iterations>0&&this.offset>=this.iterations*this.duration}},{key:"restart",value:function(){this._stop(),this.offset=0,this._start()}},{key:"pause",value:function(){this._stop()}},{key:"reverse",value:function(){this.direction=-this.direction}}],[{key:"build",value:function(n,r){return(n=function(t,n){if(I=n,!t||!t.root||!Array.isArray(t.animations))return null;for(var r=document.getElementsByTagName("svg"),e=!1,i=0;i<r.length;i++)if(r[i].id===t.root&&!r[i].svgatorAnimation){(e=r[i]).svgatorAnimation=!0;break}if(!e)return null;var u=t.animations.map((function(t){return D(e,t)})).filter((function(t){return!!t}));return u.length?{element:e,animations:u,animationSettings:t.animationSettings,options:t.options||void 0}:null}(n,r))?{el:n.element,options:n.options||{},player:new t(n.animations,n.animationSettings,n.options)}:null}}]),t}();!function(){for(var t=0,n=["ms","moz","webkit","o"],r=0;r<n.length&&!window.requestAnimationFrame;++r)window.requestAnimationFrame=window[n[r]+"RequestAnimationFrame"],window.cancelAnimationFrame=window[n[r]+"CancelAnimationFrame"]||window[n[r]+"CancelRequestAnimationFrame"];window.requestAnimationFrame||(window.requestAnimationFrame=function(n){var r=Date.now(),e=Math.max(0,16-(r-t)),i=window.setTimeout((function(){n(r+e)}),e);return t=r+e,i},window.cancelAnimationFrame=window.clearTimeout)}();var G=/\.0+$/g;function Q(t){return Number.isInteger(t)?t+"":t.toFixed(6).replace(G,"")}function U(t){var n=arguments.length>1&&void 0!==arguments[1]?arguments[1]:" ";return t&&t.length?t.map(Q).join(n):""}function $(t){return Q(t.x)+","+Q(t.y)}function H(t){return t?null==t.a||t.a>=1?"rgb("+t.r+","+t.g+","+t.b+")":"rgba("+t.r+","+t.g+","+t.b+","+t.a+")":"transparent"}var Y={f:null,i:A,u:function(t,n){return function(r){var e=n(r);t.setAttribute("rx",Q(e.x)),t.setAttribute("ry",Q(e.y))}}},Z={f:null,i:function(t,n,r){return 0===t?n:1===t?r:{width:w(t,n.width,r.width),height:w(t,n.height,r.height)}},u:function(t,n){return function(r){var e=n(r);t.setAttribute("width",Q(e.width)),t.setAttribute("height",Q(e.height))}}},J=Math.sin,K=Math.cos,W=Math.acos,X=Math.asin,tt=Math.tan,nt=Math.atan2,rt=Math.PI/180,et=180/Math.PI,it=Math.sqrt,ut=function(){function t(){var r=arguments.length>0&&void 0!==arguments[0]?arguments[0]:1,e=arguments.length>1&&void 0!==arguments[1]?arguments[1]:0,i=arguments.length>2&&void 0!==arguments[2]?arguments[2]:0,u=arguments.length>3&&void 0!==arguments[3]?arguments[3]:1,o=arguments.length>4&&void 0!==arguments[4]?arguments[4]:0,a=arguments.length>5&&void 0!==arguments[5]?arguments[5]:0;n(this,t),this.m=[r,e,i,u,o,a],this.i=null,this.w=null,this.s=null}return e(t,[{key:"determinant",get:function(){var t=this.m;return t[0]*t[3]-t[1]*t[2]}},{key:"isIdentity",get:function(){if(null===this.i){var t=this.m;this.i=1===t[0]&&0===t[1]&&0===t[2]&&1===t[3]&&0===t[4]&&0===t[5]}return this.i}},{key:"point",value:function(t,n){var r=this.m;return{x:r[0]*t+r[2]*n+r[4],y:r[1]*t+r[3]*n+r[5]}}},{key:"translateSelf",value:function(){var t=arguments.length>0&&void 0!==arguments[0]?arguments[0]:0,n=arguments.length>1&&void 0!==arguments[1]?arguments[1]:0;if(!t&&!n)return this;var r=this.m;return r[4]+=r[0]*t+r[2]*n,r[5]+=r[1]*t+r[3]*n,this.w=this.s=this.i=null,this}},{key:"rotateSelf",value:function(){var t=arguments.length>0&&void 0!==arguments[0]?arguments[0]:0;if(t%=360){var n=J(t*=rt),r=K(t),e=this.m,i=e[0],u=e[1];e[0]=i*r+e[2]*n,e[1]=u*r+e[3]*n,e[2]=e[2]*r-i*n,e[3]=e[3]*r-u*n,this.w=this.s=this.i=null}return this}},{key:"scaleSelf",value:function(){var t=arguments.length>0&&void 0!==arguments[0]?arguments[0]:1,n=arguments.length>1&&void 0!==arguments[1]?arguments[1]:1;if(1!==t||1!==n){var r=this.m;r[0]*=t,r[1]*=t,r[2]*=n,r[3]*=n,this.w=this.s=this.i=null}return this}},{key:"skewSelf",value:function(t,n){if(n%=360,(t%=360)||n){var r=this.m,e=r[0],i=r[1],u=r[2],o=r[3];t&&(t=tt(t*rt),r[2]+=e*t,r[3]+=i*t),n&&(n=tt(n*rt),r[0]+=u*n,r[1]+=o*n),this.w=this.s=this.i=null}return this}},{key:"resetSelf",value:function(){var t=arguments.length>0&&void 0!==arguments[0]?arguments[0]:1,n=arguments.length>1&&void 0!==arguments[1]?arguments[1]:0,r=arguments.length>2&&void 0!==arguments[2]?arguments[2]:0,e=arguments.length>3&&void 0!==arguments[3]?arguments[3]:1,i=arguments.length>4&&void 0!==arguments[4]?arguments[4]:0,u=arguments.length>5&&void 0!==arguments[5]?arguments[5]:0,o=this.m;return o[0]=t,o[1]=n,o[2]=r,o[3]=e,o[4]=i,o[5]=u,this.w=this.s=this.i=null,this}},{key:"recomposeSelf",value:function(){var t=arguments.length>0&&void 0!==arguments[0]?arguments[0]:null,n=arguments.length>1&&void 0!==arguments[1]?arguments[1]:null,r=arguments.length>2&&void 0!==arguments[2]?arguments[2]:null,e=arguments.length>3&&void 0!==arguments[3]?arguments[3]:null,i=arguments.length>4&&void 0!==arguments[4]?arguments[4]:null;return this.isIdentity||this.resetSelf(),t&&(t.x||t.y)&&this.translateSelf(t.x,t.y),n&&this.rotateSelf(n),r&&(r.x&&this.skewSelf(r.x,0),r.y&&this.skewSelf(0,r.y)),!e||1===e.x&&1===e.y||this.scaleSelf(e.x,e.y),i&&(i.x||i.y)&&this.translateSelf(i.x,i.y),this}},{key:"decompose",value:function(){var t=arguments.length>0&&void 0!==arguments[0]?arguments[0]:0,n=arguments.length>1&&void 0!==arguments[1]?arguments[1]:0,r=this.m,e=r[0]*r[0]+r[1]*r[1],i=[[r[0],r[1]],[r[2],r[3]]],u=it(e);if(0===u)return{origin:{x:r[4],y:r[5]},translate:{x:t,y:n},scale:{x:0,y:0},skew:{x:0,y:0},rotate:0};i[0][0]/=u,i[0][1]/=u;var o=r[0]*r[3]-r[1]*r[2]<0;o&&(u=-u);var a=i[0][0]*i[1][0]+i[0][1]*i[1][1];i[1][0]-=i[0][0]*a,i[1][1]-=i[0][1]*a;var l=it(i[1][0]*i[1][0]+i[1][1]*i[1][1]);if(0===l)return{origin:{x:r[4],y:r[5]},translate:{x:t,y:n},scale:{x:u,y:0},skew:{x:0,y:0},rotate:0};i[1][0]/=l,i[1][1]/=l,a/=l;var f=0;return i[1][1]<0?(f=W(i[1][1])*et,i[0][1]<0&&(f=360-f)):f=X(i[0][1])*et,o&&(f=-f),a=nt(a,it(i[0][0]*i[0][0]+i[0][1]*i[0][1]))*et,o&&(a=-a),{origin:{x:r[4],y:r[5]},translate:{x:t,y:n},scale:{x:u,y:l},skew:{x:a,y:0},rotate:f}}},{key:"toString",value:function(){return null===this.s&&(this.s="matrix("+this.m.map(at).join(" ")+")"),this.s}}]),t}(),ot=/\.0+$/;function at(t){return Number.isInteger(t)?t:t.toFixed(14).replace(ot,"")}Object.freeze({M:2,L:2,Z:0,H:1,V:1,C:6,Q:4,T:2,S:4,A:7});var lt={},ft=null;function st(n){var r=function(){if(ft)return ft;if("object"!==("undefined"==typeof document?"undefined":t(document)))return{};var n=document.createElementNS("http://www.w3.org/2000/svg","svg");return n.style.position="absolute",n.style.opacity="0.01",n.style.zIndex="-9999",n.style.left="-9999px",n.style.width="1px",n.style.height="1px",ft={svg:n}}().svg;if(!r)return function(t){return null};var e=document.createElementNS(r.namespaceURI,"path");e.setAttributeNS(null,"d",n),e.setAttributeNS(null,"fill","none"),e.setAttributeNS(null,"stroke","none"),r.appendChild(e);var i=e.getTotalLength();return function(t){var n=e.getPointAtLength(i*t);return{x:n.x,y:n.y}}}function ct(t){return lt[t]?lt[t]:lt[t]=st(t)}function ht(t,n,r,e){if(!t||!e)return!1;var i=["M",t.x,t.y];if(n&&r&&(i.push("C"),i.push(n.x),i.push(n.y),i.push(r.x),i.push(r.y)),n?!r:r){var u=n||r;i.push("Q"),i.push(u.x),i.push(u.y)}return n||r||i.push("L"),i.push(e.x),i.push(e.y),i.join(" ")}function vt(t,n,r,e){var i=arguments.length>4&&void 0!==arguments[4]?arguments[4]:1,u=ht(t,n,r,e),o=ct(u);try{return o(i)}catch(t){return null}}function yt(t,n,r,e){var i=1-e;return i*i*t+2*i*e*n+e*e*r}function dt(t,n,r,e){return 2*(1-e)*(n-t)+2*e*(r-n)}function gt(t,n,r,e){var i=arguments.length>4&&void 0!==arguments[4]&&arguments[4],u=vt(t,n,null,r,e);return u||(u={x:yt(t.x,n.x,r.x,e),y:yt(t.y,n.y,r.y,e)}),i&&(u.a=pt(t,n,r,e)),u}function pt(t,n,r,e){return Math.atan2(dt(t.y,n.y,r.y,e),dt(t.x,n.x,r.x,e))}function mt(t,n,r,e,i){var u=i*i;return i*u*(e-t+3*(n-r))+3*u*(t+r-2*n)+3*i*(n-t)+t}function bt(t,n,r,e,i){var u=1-i;return 3*(u*u*(n-t)+2*u*i*(r-n)+i*i*(e-r))}function wt(t,n,r,e,i){var u=arguments.length>5&&void 0!==arguments[5]&&arguments[5],o=vt(t,n,r,e,i);return o||(o={x:mt(t.x,n.x,r.x,e.x,i),y:mt(t.y,n.y,r.y,e.y,i)}),u&&(o.a=xt(t,n,r,e,i)),o}function xt(t,n,r,e,i){return Math.atan2(bt(t.y,n.y,r.y,e.y,i),bt(t.x,n.x,r.x,e.x,i))}function At(t,n,r){return t+(n-t)*r}function kt(t,n,r){var e=arguments.length>3&&void 0!==arguments[3]&&arguments[3],i={x:At(t.x,n.x,r),y:At(t.y,n.y,r)};return e&&(i.a=_t(t,n)),i}function _t(t,n){return Math.atan2(n.y-t.y,n.x-t.x)}function St(t,n,r){var e=arguments.length>3&&void 0!==arguments[3]&&arguments[3];if(Mt(n)){if(Bt(r))return gt(n,r.start,r,t,e)}else if(Mt(r)){if(n.end)return gt(n,n.end,r,t,e)}else{if(n.end)return r.start?wt(n,n.end,r.start,r,t,e):gt(n,n.end,r,t,e);if(r.start)return gt(n,r.start,r,t,e)}return kt(n,r,t,e)}function Ot(t,n,r){var e=St(t,n,r,!0);return e.a=function(t){var n=arguments.length>1&&void 0!==arguments[1]&&arguments[1];return n?t+Math.PI:t}(e.a)/p,e}function Mt(t){return!t.type||"corner"===t.type}function Bt(t){return null!=t.start&&!Mt(t)}var It=new ut;var jt={f:function(t){return t?t.join(" "):""},i:function(n,r,e){if(0===n)return r;if(1===n)return e;var i=r.length;if(i!==e.length)return m(n,r,e);for(var u,o=new Array(i),a=0;a<i;a++){if((u=t(r[a]))!==t(e[a]))return m(n,r,e);if("number"===u)o[a]=b(n,r[a],e[a]);else{if(r[a]!==e[a])return m(n,r,e);o[a]=r[a]}}return o}},Et={f:null,i:O,u:function(t,n){return function(r){var e=n(r);t.setAttribute("x1",Q(e[0])),t.setAttribute("y1",Q(e[1])),t.setAttribute("x2",Q(e[2])),t.setAttribute("y2",Q(e[3]))}}},Ft={f:Q,i:b},Pt={f:Q,i:function(t,n,r){var e=b(t,n,r);return e<=0?0:e>=1?1:e}},Rt={f:function(t){var n=arguments.length>1&&void 0!==arguments[1]?arguments[1]:" ";return t&&t.length>0&&(t=t.map((function(t){return Math.floor(1e4*t)/1e4}))),U(t,n)},i:function(t,n,r){var e,i,u,o=n.length,a=r.length;if(o!==a)if(0===o)n=M(o=a,0);else if(0===a)a=o,r=M(o,0);else{var l=(u=(e=o)*(i=a)/function(t,n){for(var r;n;)r=n,n=t%n,t=r;return t||1}(e,i))<0?-u:u;n=B(n,Math.floor(l/o)),r=B(r,Math.floor(l/a)),o=a=l}for(var f=[],s=0;s<o;s++)f.push(g(w(t,n[s],r[s]),6));return f}};function qt(t,n,r,e,i,u,o,a){return n=function(t,n,r){for(var e,i,u,o=t.length-1,a={},l=0;l<=o;l++)(e=t[l]).e&&(e.e=n(e.e)),e.v&&"g"===(i=e.v).t&&i.r&&(u=r.getElementById(i.r))&&(a[i.r]=u.querySelectorAll("stop"));return a}(t,e,a),function(e){var i,u=r(e,t,Tt);return u?"c"===u.t?H(u.v):"g"===u.t?(n[u.r]&&function(t,n){for(var r=0,e=t.length;r<e;r++)t[r].setAttribute("stop-color",H(n[r]))}(n[u.r],u.v),(i=u.r)?"url(#"+i+")":"none"):"none":"none"}}function Tt(t,n,r){if(0===t)return n;if(1===t)return r;if(n&&r){var e=n.t;if(e===r.t)switch(n.t){case"c":return{t:e,v:_(t,n.v,r.v)};case"g":if(n.r===r.r)return{t:e,v:S(t,n.v,r.v),r:n.r}}}return m(t,n,r)}var Nt={blur:A,brightness:w,contrast:w,"drop-shadow":function(t,n,r){return 0===t?n:1===t?r:{blur:A(t,n.blur,r.blur),offset:x(t,n.offset,r.offset),color:_(t,n.color,r.color)}},grayscale:w,"hue-rotate":b,invert:w,opacity:w,saturate:w,sepia:w};function Ct(t,n,r){if(0===t)return n;if(1===t)return r;var e=n.length;if(e!==r.length)return m(t,n,r);for(var i,u=[],o=0;o<e;o++){if(n[o].type!==r[o].type)return n;if(!(i=Nt[n[o].type]))return m(t,n,r);u.push({type:n.type,value:i(t,n[o].value,r[o].value)})}return u}var zt={blur:function(t){return t?function(n){t.setAttribute("stdDeviation",$(n))}:null},brightness:function(t,n,r){return(t=Dt(r,n))?function(n){n=Q(n),t.map((function(t){return t.setAttribute("slope",n)}))}:null},contrast:function(t,n,r){return(t=Dt(r,n))?function(n){var r=Q((1-n)/2);n=Q(n),t.map((function(t){t.setAttribute("slope",n),t.setAttribute("intercept",r)}))}:null},"drop-shadow":function(t,n,r){var e=r.getElementById(n+"-blur");if(!e)return null;var i=r.getElementById(n+"-offset");if(!i)return null;var u=r.getElementById(n+"-flood");return u?function(t){e.setAttribute("stdDeviation",$(t.blur)),i.setAttribute("dx",Q(t.offset.x)),i.setAttribute("dy",Q(t.offset.y)),u.setAttribute("flood-color",H(t.color))}:null},grayscale:function(t){return t?function(n){t.setAttribute("values",U(function(t){return[.2126+.7874*(t=1-t),.7152-.7152*t,.0722-.0722*t,0,0,.2126-.2126*t,.7152+.2848*t,.0722-.0722*t,0,0,.2126-.2126*t,.7152-.7152*t,.0722+.9278*t,0,0,0,0,0,1,0]}(n)))}:null},"hue-rotate":function(t){return t?function(n){return t.setAttribute("values",Q(n))}:null},invert:function(t,n,r){return(t=Dt(r,n))?function(n){n=Q(n)+" "+Q(1-n),t.map((function(t){return t.setAttribute("tableValues",n)}))}:null},opacity:function(t,n,r){return(t=r.getElementById(n+"-A"))?function(n){return t.setAttribute("tableValues","0 "+Q(n))}:null},saturate:function(t){return t?function(n){return t.setAttribute("values",Q(n))}:null},sepia:function(t){return t?function(n){return t.setAttribute("values",U(function(t){return[.393+.607*(t=1-t),.769-.769*t,.189-.189*t,0,0,.349-.349*t,.686+.314*t,.168-.168*t,0,0,.272-.272*t,.534-.534*t,.131+.869*t,0,0,0,0,0,1,0]}(n)))}:null}};var Lt=["R","G","B"];function Dt(t,n){var r=Lt.map((function(r){return t.getElementById(n+"-"+r)||null}));return-1!==r.indexOf(null)?null:r}var Vt={fill:qt,"fill-opacity":Pt,stroke:qt,"stroke-opacity":Pt,"stroke-width":Ft,"stroke-dashoffset":{f:Q,i:b},"stroke-dasharray":Rt,opacity:Pt,transform:function(n,r,e,i){if(!(n=function(n,r){if(!n||"object"!==t(n))return null;var e=!1;for(var i in n)n.hasOwnProperty(i)&&(n[i]&&n[i].length?(n[i].forEach((function(t){t.e&&(t.e=r(t.e))})),e=!0):delete n[i]);return e?n:null}(n,i)))return null;var u=function(t,i,u){var o=arguments.length>3&&void 0!==arguments[3]?arguments[3]:null;return n[t]?e(i,n[t],u):r&&r[t]?r[t]:o};return r&&r.a&&n.o?function(t){var r=e(t,n.o,Ot);return It.recomposeSelf(r,u("r",t,b,0)+r.a,u("k",t,x),u("s",t,x),u("t",t,x)).toString()}:function(t){return It.recomposeSelf(u("o",t,St,null),u("r",t,b,0),u("k",t,x),u("s",t,x),u("t",t,x)).toString()}},"#filter":function(t,n,r,e,i,u,o,a){if(!n.items||!t||!t.length)return null;var l=function(t,n){var r=(t=t.map((function(t){return t&&zt[t[0]]?(n.getElementById(t[1]),zt[t[0]](n.getElementById(t[1]),t[1],n)):null}))).length;return function(n){for(var e=0;e<r;e++)t[e]&&t[e](n[e].value)}}(n.items,a);return l?(t=function(t,n){return t.map((function(t){return t.e=n(t.e),t}))}(t,e),function(n){l(r(n,t,Ct))}):null},"#line":Et,points:{f:U,i:O},d:jt,r:Ft,"#size":Z,"#radius":Y,_:function(t,n){if(Array.isArray(t))for(var r=0;r<t.length;r++)this[t[r]]=n;else this[t]=n}};return function(t){!function(t,n){if("function"!=typeof n&&null!==n)throw new TypeError("Super expression must either be null or a function");t.prototype=Object.create(n&&n.prototype,{constructor:{value:t,writable:!0,configurable:!0}}),n&&u(t,n)}(o,t);var r=a(o);function o(){return n(this,o),r.apply(this,arguments)}return e(o,null,[{key:"build",value:function(t){var n=l(i(o),"build",this).call(this,t,Vt);n.el,n.options;var r=n.player;return function(t,n,r){t.play()}(r),r}}]),o}(V)}));
__SVGATOR_PLAYER__.build({"root":"eR4Cc8EGdSs1","animations":[{"duration":32000,"direction":1,"iterations":0,"fill":1,"alternate":true,"speed":1,"elements":{"eR4Cc8EGdSs2":{"transform":{"data":{"o":{"x":200.97332350499997,"y":262.78911042,"type":"corner"},"t":{"x":-289.60020447,"y":-498.08724958}},"keys":{"r":[{"t":0,"v":-4.918766944505211},{"t":3000,"v":2.797721737980182},{"t":6000,"v":-4.918766944505211},{"t":9000,"v":2.797721737980182},{"t":12000,"v":-4.918766944505211},{"t":15000,"v":2.797721737980182},{"t":18000,"v":-4.918766944505211},{"t":21000,"v":2.797721737980182},{"t":24000,"v":-4.918766944505211},{"t":27000,"v":2.797721737980182},{"t":30000,"v":-4.918766944505211}]}}},"eR4Cc8EGdSs4":{"transform":{"data":{"o":{"x":18.376049999999992,"y":403.87608702,"type":"corner"},"t":{"x":-108.63395,"y":-635.53508702}},"keys":{"r":[{"t":0,"v":0},{"t":3000,"v":-16.406770732251335},{"t":6000,"v":0},{"t":9000,"v":-16.406770732251335},{"t":12000,"v":0},{"t":15000,"v":-16.406770732251335},{"t":18000,"v":0},{"t":21000,"v":-16.406770732251335},{"t":24000,"v":0},{"t":27000,"v":-16.406770732251335},{"t":30000,"v":0}]}}},"eR4Cc8EGdSs10":{"transform":{"data":{"o":{"x":259.098068235,"y":220.21166992000002,"type":"corner"},"t":{"x":-259.098068235,"y":-220.21166992000002}},"keys":{"r":[{"t":0,"v":0},{"t":3000,"v":-18.997959820320272},{"t":6000,"v":0},{"t":9000,"v":-18.997959820320272},{"t":12000,"v":0},{"t":15000,"v":-18.997959820320272},{"t":18000,"v":0},{"t":21000,"v":-18.997959820320272},{"t":24000,"v":0},{"t":27000,"v":-18.997959820320272},{"t":30000,"v":0}]}}},"eR4Cc8EGdSs17":{"transform":{"data":{"t":{"x":-50.951278685000005,"y":-138.710666655}},"keys":{"o":[{"t":1000,"v":{"x":50.951278685000005,"y":138.710666655,"type":"cusp","end":{"x":68.65386658920907,"y":189.8364837476818}}},{"t":8000,"v":{"x":146.65018907000007,"y":160.01757194500018,"type":"cusp","start":{"x":117.30307532997163,"y":184.09498108621682},"end":{"x":202.1645925946957,"y":92.54833456216225}}},{"t":16000,"v":{"x":126.8638240150002,"y":64.52745000000017,"type":"cusp","start":{"x":168.9497692362222,"y":66.70765166008484},"end":{"x":21.27930235005296,"y":46.20564161790617}}},{"t":24000,"v":{"x":49.97100000000023,"y":152.04289189000013,"type":"cusp","start":{"x":40.57109310838597,"y":117.97659778236951},"end":{"x":100.61691960261382,"y":178.21970214263024}}},{"t":32000,"v":{"x":176.63523075000032,"y":125.25748515999965,"type":"cusp","start":{"x":104.06063483946123,"y":209.9868426401974}}}],"s":[{"t":0,"v":{"x":0,"y":0}},{"t":1000,"v":{"x":1,"y":1}}]}}},"eR4Cc8EGdSs20":{"transform":{"data":{"t":{"x":-151.87776946999998,"y":-62.80077362}},"keys":{"o":[{"t":1000,"v":{"x":151.87776946999998,"y":62.80077362,"type":"cusp","end":{"x":43.02246724962977,"y":32.103507168443315}}},{"t":8000,"v":{"x":49.97099999999995,"y":151.1105755900001,"type":"cusp","start":{"x":32.853872803189994,"y":98.04754260127368},"end":{"x":99.9633878663658,"y":231.10988228794415}}},{"t":16000,"v":{"x":152.4017450750002,"y":157.25114715500027,"type":"cusp","start":{"x":136.60615760298728,"y":192.75319823836986},"end":{"x":224.49557930381593,"y":67.78944365587205}}},{"t":24000,"v":{"x":117.16088458000041,"y":57.05644478500025,"type":"cusp","start":{"x":148.1614565848744,"y":62.591241179439606},"end":{"x":45.18576187072439,"y":39.03824083446189}}},{"t":32000,"v":{"x":47.980504580000385,"y":157.56866590000024,"type":"cusp","start":{"x":27.769810110056937,"y":83.30562495713025}}}],"s":[{"t":0,"v":{"x":0,"y":0}},{"t":1000,"v":{"x":1,"y":1}}]}}},"eR4Cc8EGdSs23":{"transform":{"data":{"t":{"x":-145.0115242,"y":-161.139190675}},"keys":{"o":[{"t":1000,"v":{"x":145.0115242,"y":161.139190675,"type":"cusp","end":{"x":193.4382455296087,"y":140.7739445786079}}},{"t":8000,"v":{"x":149.40035306499993,"y":60.43446999500017,"type":"cusp","start":{"x":209.69854833983587,"y":92.60422216672075},"end":{"x":25.183183355185335,"y":31.03530523570366}}},{"t":16000,"v":{"x":49.08576347,"y":153.9570826650001,"type":"cusp","start":{"x":34.199221490098154,"y":111.4773874695606},"end":{"x":88.68537101499584,"y":192.84026108251973}}},{"t":24000,"v":{"x":170.57503806000003,"y":149.24823681499996,"type":"cusp","start":{"x":122.98187154124356,"y":205.12930049564542},"end":{"x":229.9062349282052,"y":38.41585562324869}}},{"t":32000,"v":{"x":123.9108008150001,"y":64.45353591999994,"type":"cusp","start":{"x":125.15230904947157,"y":56.25437853462412}}}],"s":[{"t":0,"v":{"x":0,"y":0}},{"t":1000,"v":{"x":1,"y":1}}]}}},"eR4Cc8EGdSs26":{"transform":{"data":{"r":-0.09743282933270427,"t":{"x":-643.585723875,"y":-195.72502136499998}},"keys":{"o":[{"t":0,"v":{"x":659.4556288149996,"y":389.1291108299993,"type":"corner"}},{"t":1000,"v":{"x":652.4472635099997,"y":202.25075914999928,"type":"corner"}}],"s":[{"t":0,"v":{"x":1,"y":0.02018875258747237}},{"t":1000,"v":{"x":1,"y":1}}]}}},"eR4Cc8EGdSs31":{"transform":{"data":{"t":{"x":-441.4829406775104,"y":-276.5295715332546}},"keys":{"o":[{"t":1000,"v":{"x":440.82273050987936,"y":277.4530598815904,"type":"corner"}},{"t":11000,"v":{"x":439.4035366089191,"y":131.47081049565188,"type":"corner"}},{"t":21000,"v":{"x":440.82273050987936,"y":277.4530598815904,"type":"corner"}},{"t":31000,"v":{"x":439.4035366089191,"y":131.47081049565188,"type":"corner"}}]}}},"eR4Cc8EGdSs34":{"transform":{"data":{"o":{"x":782.7395324712462,"y":172.04311370999932,"type":"corner"},"t":{"x":-782.7395324712462,"y":-172.04311370999932}},"keys":{"s":[{"t":1000,"v":{"x":-0.027915384739760303,"y":1.1668528306365855}},{"t":6000,"v":{"x":-1.4130333572453608,"y":1.1646466249706455}},{"t":11000,"v":{"x":-0.027915384739760303,"y":1.1668528306365855}},{"t":16000,"v":{"x":-1.4130333572453608,"y":1.1646466249706455}},{"t":21000,"v":{"x":-0.027915384739760303,"y":1.1668528306365855}},{"t":26000,"v":{"x":-1.4130333572453608,"y":1.1646466249706455}},{"t":31000,"v":{"x":-0.027915384739760303,"y":1.1668528306365855}}]}}},"eR4Cc8EGdSs39":{"transform":{"data":{"t":{"x":-906.3327026443503,"y":-70.29949951012763}},"keys":{"o":[{"t":1000,"v":{"x":906.3327026443503,"y":70.29949951012763,"type":"corner"}},{"t":11000,"v":{"x":908.3933733338805,"y":329.3317668548978,"type":"corner"}},{"t":21000,"v":{"x":906.3327026443503,"y":70.29949951012763,"type":"corner"}},{"t":31000,"v":{"x":908.3933733338805,"y":329.3317668548978,"type":"corner"}}]}}}}}],"options":{"start":"load","hover":"freeze","click":"freeze","scroll":25,"font":"embed","exportedIds":"unique","svgFormat":"animated","title":"undraw_Code_thinking_re_gka2 (1)"},"animationSettings":{"duration":32000,"direction":1,"iterations":0,"fill":1,"alternate":true,"speed":1}})]]></script></svg>