<svg id="e1oWRIlF3P81" xmlns="http://www.w3.org/2000/svg" xmlns:xlink="http://www.w3.org/1999/xlink" viewBox="0 0 410.453000 306.369000" shape-rendering="geometricPrecision" text-rendering="geometricPrecision"><g id="e1oWRIlF3P82" transform="matrix(1 0 0 1 -0.00100000000000 -48.59700000000000)"><g id="e1oWRIlF3P83" transform="matrix(1 0 0 1 319.03300000000002 278.39499999999998)"><path id="e1oWRIlF3P84" d="M670.738000,628.100000C666.827272,628.100000,663.657000,631.270272,663.657000,635.181000C663.657000,639.091728,666.827272,642.262000,670.738000,642.262000C674.648728,642.262000,677.819000,639.091728,677.819000,635.181000L677.819000,635.181000C677.819000,633.303002,677.072968,631.501922,675.745023,630.173977C674.417078,628.846032,672.615998,628.100000,670.738000,628.100000ZM670.738000,639.539000C668.975354,639.539000,667.386269,638.477207,666.711733,636.848734C666.037197,635.220261,666.410049,633.345808,667.656429,632.099429C668.902808,630.853049,670.777261,630.480197,672.405734,631.154733C674.034207,631.829269,675.096000,633.418354,675.096000,635.181000L675.096000,635.181000C675.096000,637.587857,673.144857,639.539000,670.738000,639.539000Z" transform="matrix(1 0 0 1 -643.50300000000004 -622.65300000000002)" fill="rgb(228,228,228)" stroke="none" stroke-width="1"/><path id="e1oWRIlF3P85" d="M630.954000,619.261000L658.189000,619.261000L658.189000,646.216000C658.189000,647.156988,657.815194,648.059436,657.149815,648.724815C656.484436,649.390194,655.581988,649.764000,654.641000,649.764000L634.500000,649.764000C633.559012,649.764000,632.656564,649.390194,631.991185,648.724815C631.325806,648.059436,630.952000,647.156988,630.952000,646.216000L630.952000,619.261000Z" transform="matrix(1 0 0 1 -630.95399999999995 -619.26099999999997)" fill="rgb(228,228,228)" stroke="none" stroke-width="1"/></g><path id="e1oWRIlF3P86" d="M523.170000,668.991000L113.822000,668.991000C113.506838,668.957370,113.267786,668.691452,113.267786,668.374500C113.267786,668.057548,113.506838,667.791630,113.822000,667.758000L523.170000,667.758000C523.485162,667.791630,523.724214,668.057548,523.724214,668.374500C523.724214,668.691452,523.485162,668.957370,523.170000,668.991000Z" transform="matrix(1 0 0 1 -113.26900000000001 -359.47600000000000)" fill="rgb(202,202,202)" stroke="none" stroke-width="1"/><path id="e1oWRIlF3P87" d="M87.834000,494.381000L85.300000,506.900000L132.379000,522.624000L136.116000,504.148000Z" transform="matrix(1 0 0 1 -32.73300000000000 -196.50800000000001)" fill="rgb(255,182,182)" stroke="none" stroke-width="1"/><path id="e1oWRIlF3P88" d="M195.176000,644.986000L190.190000,669.639000L190.190000,669.639000C188.434458,678.316151,179.977197,683.927313,171.300000,682.172000L170.789000,682.072000L178.953000,641.709000Z" transform="matrix(1 0 0 1 -135.34200000000001 -349.47899999999998)" fill="rgb(47,46,65)" stroke="none" stroke-width="1"/><g id="e1oWRIlF3P89"><circle id="e1oWRIlF3P810" r="31.966000" transform="matrix(1 0 0 1 108.44999999999999 93.47600000000000)" fill="rgb(254,184,184)" stroke="none" stroke-width="1"/><path id="e1oWRIlF3P811" d="M296.551000,263.677000C291.772502,255.916858,284.292646,250.198330,275.551000,247.622000L271.627000,250.486000L271.627000,246.767000C269.527214,246.445545,267.401913,246.321670,265.279000,246.397000L261.893000,249.460000L261.893000,246.651000C251.759055,247.909464,242.613010,253.348144,236.668000,261.651000C229.315000,272.251000,228.074000,286.997000,235.306000,297.682000C237.291000,291.582000,239.701000,285.856000,241.686000,279.756000C243.244976,279.968364,244.825020,279.976096,246.386000,279.779000L248.801000,274.143000L249.476000,279.543000C256.962000,278.891000,268.066000,277.459000,275.163000,276.143000L274.473000,272.002000L278.602000,275.443000C280.776000,274.943000,282.067000,274.488000,281.961000,274.143000C287.239000,282.652000,293.699000,288.087000,298.977000,296.597000C300.983000,284.600000,303.290000,274.626000,296.551000,263.677000Z" transform="matrix(1 0 0 1 -158.24299999999999 -197.77900000000000)" fill="rgb(47,46,65)" stroke="none" stroke-width="1"/></g><ellipse id="e1oWRIlF3P812" rx="82.309000" ry="23.023000" transform="matrix(1 0 0 1 118.85100000000000 279.63500000000005)" fill="rgb(47,46,65)" stroke="none" stroke-width="1"/><path id="e1oWRIlF3P813" d="M317.390000,424.570000C316.290000,417.957000,315.157000,411.217000,312.083000,405.259000C310.063000,401.359000,306.856000,397.638000,302.534000,396.867000C301.682681,396.790903,300.846038,396.597055,300.048000,396.291000C298.781000,395.681000,281.761000,385.965000,279.056000,384.272000C276.733000,382.819000,273.067000,380.129000,271.218000,380.129000C269.358000,380.088000,262.226000,381.748000,234.390000,379.572000C229.707739,381.451516,225.173597,383.680814,220.826000,386.241000C220.736000,386.182000,191.934000,401.649000,190.852000,401.608000C188.771686,401.660448,186.851765,402.737759,185.723000,404.486000C184.648359,406.237753,183.871183,408.155352,183.423000,410.161000C189.714000,424.171000,195.470000,438.198000,201.761000,452.208000C202.055476,452.735523,202.211980,453.328864,202.216000,453.933000C202.089513,454.560347,201.821735,455.150622,201.433000,455.659000C198.348000,460.615000,198.446000,466.849000,198.783000,472.673000C199.120000,478.497000,199.537000,484.651000,196.934000,489.873000C196.226000,491.306000,195.305000,492.618000,194.634000,494.052000C193.057000,497.299000,192.487000,507.682000,193.408000,511.170000L308.815000,514.476000C306.329000,507.656000,317.390000,424.570000,317.390000,424.570000Z" transform="matrix(1 0 0 1 -140.18799999999999 -248.89099999999999)" fill="rgb(255,255,255)" stroke="none" stroke-width="1"/><g id="e1oWRIlF3P814"><path id="e1oWRIlF3P815" d="M167.114000,493.566000C166.883728,495.231735,166.860552,496.919570,167.045000,498.591000L168.699000,522.346000C168.854000,524.585000,169.007000,526.818000,169.217000,529.052000C169.617000,533.386000,170.207000,537.686000,170.943000,541.979000C170.958968,542.588891,171.216600,543.167450,171.659204,543.587361C172.101807,544.007271,172.693113,544.234125,173.303000,544.218000C180.584000,545.759000,188.103000,545.697000,195.538000,545.277000C206.877000,544.644000,235.888000,543.447000,237.660000,541.144000C239.432000,538.841000,238.400000,535.118000,236.089000,533.256000C233.778000,531.394000,195.495000,526.856000,195.495000,526.856000C196.009591,523.907362,196.873334,521.030457,198.068000,518.286000C199.991000,513.294000,201.787000,508.138000,201.821000,502.791000C201.855000,497.444000,199.841000,491.821000,195.460000,488.758000C191.860000,486.243000,187.217000,485.777000,182.826000,485.880000C179.631000,485.972000,174.111000,485.206000,171.193000,486.456000C168.883000,487.472000,167.545000,491.300000,167.114000,493.566000Z" transform="matrix(1 0 0 1 -133.85700000000000 -289.62700000000001)" fill="rgb(251,190,190)" stroke="none" stroke-width="1"/><path id="e1oWRIlF3P816" d="M175.805000,427.616000C175.244152,428.203117,174.809248,428.898690,174.527000,429.660000C169.874279,440.145534,167.126042,451.375854,166.411000,462.825000C166.423550,463.383285,166.294906,463.935698,166.037000,464.431000C165.782626,464.760429,165.499515,465.066630,165.191000,465.346000C164.647679,465.990067,164.382477,466.823596,164.453742,467.663204C164.525006,468.502813,164.926898,469.279719,165.571000,469.823000Q165.649000,469.889000,165.732000,469.950000C166.682000,468.163000,168.955000,467.579000,170.976000,467.423000C180.651000,466.658000,190.103000,471.159000,199.807000,470.823000C199.122000,468.457000,198.138000,466.184000,197.579000,463.790000C195.110000,453.159000,201.269000,441.584000,197.493000,431.344000C196.866415,429.227110,195.428678,427.443596,193.493000,426.382000C192.670853,426.050370,191.810542,425.822611,190.932000,425.704000C188.480000,425.261000,183.598000,423.367000,181.232000,424.127000C180.357000,424.409000,180.012000,425.227000,179.286000,425.727000C178.180000,426.430000,176.718000,426.689000,175.805000,427.616000Z" transform="matrix(1 0 0 1 -132.90600000000001 -265.91800000000001)" fill="rgb(255,255,255)" stroke="none" stroke-width="1"/></g><path id="e1oWRIlF3P817" d="M336.534000,585.283000C338.451000,584.552000,340.563000,584.816000,342.618000,585.093000C349.232000,585.993000,355.943000,586.923000,362.073000,589.565000C364.989179,590.687179,367.585916,592.506920,369.636000,594.865000C371.256775,597.146836,372.502483,599.673022,373.326000,602.348000L375.537000,608.403000C376.476946,610.678742,377.124771,613.064405,377.465000,615.503000C378.156000,622.750000,373.200000,629.582000,366.965000,633.346000C360.730000,637.110000,353.393000,638.451000,346.244000,639.856000C339.095000,641.261000,331.918000,642.814000,324.798000,644.456000C321.477118,645.317909,318.107809,645.981086,314.708000,646.442000C307.087000,647.305000,299.121000,646.033000,291.880000,648.555000C289.002000,649.563000,286.180000,651.055000,283.191000,651.755000C281.206741,652.172427,279.200572,652.477910,277.182000,652.670000L263.482000,654.235000C260.696344,654.607662,257.891895,654.823003,255.082000,654.880000C249.096000,654.880000,243.208000,653.463000,237.395000,652.045000C236.477051,651.949373,235.638524,651.481353,235.075264,650.750249C234.512004,650.019145,234.273335,649.088979,234.415000,648.177000Q233.534000,640.458000,232.874000,632.723000C232.736000,631.048000,232.632000,629.235000,233.548000,627.823000C234.699000,626.097000,236.948000,625.555000,238.993000,625.223000C247.681870,623.801435,256.484055,623.190474,265.286000,623.398000C268.630000,620.054000,274.144000,620.037000,278.525000,618.218000C280.136368,617.478064,281.695917,616.630134,283.193000,615.680000C291.028249,611.108103,299.784402,608.340952,308.824000,607.580000C310.594346,607.526091,312.353184,607.275212,314.068000,606.832000C317.457000,605.779000,320.549000,602.912000,324.031000,603.614000C324.462000,602.423000,324.762000,600.828000,325.757000,600.014000C326.250000,599.594000,326.862000,599.314000,327.317000,598.863000C328.169450,597.770233,328.498549,596.358034,328.217000,595.001000C327.931939,593.660871,327.892972,592.280072,328.102000,590.926000C328.248062,590.424674,328.463121,589.946092,328.741000,589.504000C330.202882,586.608205,333.309905,584.925317,336.534000,585.283000Z" transform="matrix(1 0 0 1 -159.12799999999999 -327.64699999999999)" fill="rgb(47,46,65)" stroke="none" stroke-width="1"/><g id="e1oWRIlF3P818"><path id="e1oWRIlF3P819" d="M358.977000,486.455000C356.059000,485.206000,350.539000,485.971000,347.344000,485.879000C342.953000,485.779000,338.314000,486.242000,334.710000,488.757000C330.330000,491.820000,328.310000,497.443000,328.349000,502.790000C328.388000,508.137000,330.179000,513.290000,332.102000,518.285000C333.296666,521.029457,334.160409,523.906362,334.675000,526.855000C335.189591,529.803638,296.392000,531.394000,294.081000,533.255000C291.770000,535.116000,290.737000,538.841000,292.510000,541.143000C294.283000,543.445000,349.586000,545.757000,356.867000,544.216000C357.476887,544.232125,358.068193,544.005271,358.510796,543.585361C358.953400,543.165450,359.211032,542.586891,359.227000,541.977000C359.963000,537.683000,360.556000,533.384000,360.953000,529.050000C361.163000,526.817000,361.316000,524.583000,361.471000,522.344000L363.125000,498.589000C363.309448,496.917570,363.286272,495.229735,363.056000,493.564000C362.624000,491.300000,361.286000,487.472000,358.977000,486.455000Z" transform="matrix(1 0 0 1 -181.70599999999999 -289.62700000000001)" fill="rgb(251,190,190)" stroke="none" stroke-width="1"/><path id="e1oWRIlF3P820" d="M373.470000,425.727000C372.745000,425.227000,372.400000,424.407000,371.524000,424.127000C369.153000,423.367000,364.272000,425.261000,361.824000,425.704000C360.945458,425.822611,360.085147,426.050370,359.263000,426.382000C357.327322,427.443596,355.889585,429.227110,355.263000,431.344000C351.487000,441.584000,357.646000,453.159000,355.177000,463.790000C354.619000,466.184000,353.634000,468.458000,352.949000,470.823000C362.649000,471.163000,372.104000,466.661000,381.780000,467.423000C383.801000,467.578000,386.074000,468.163000,387.024000,469.950000Q387.107000,469.889000,387.185000,469.823000C387.829102,469.279719,388.230994,468.502813,388.302258,467.663204C388.373523,466.823596,388.108321,465.990067,387.565000,465.346000C387.256451,465.066664,386.973338,464.760459,386.719000,464.431000C386.461053,463.935713,386.332407,463.383289,386.345000,462.825000C385.629937,451.375857,382.881701,440.145541,378.229000,429.660000C377.946752,428.898690,377.511848,428.203117,376.951000,427.616000C376.034000,426.689000,374.572000,426.430000,373.470000,425.727000Z" transform="matrix(1 0 0 1 -205.24000000000001 -265.91800000000001)" fill="rgb(255,255,255)" stroke="none" stroke-width="1"/></g><path id="e1oWRIlF3P821" d="M267.290000,519.337000L265.608000,532L215.975000,531.535000L218.459000,512.850000Z" transform="matrix(1 0 0 1 -82.87600000000000 -203.59299999999999)" fill="rgb(255,182,182)" stroke="none" stroke-width="1"/><path id="e1oWRIlF3P822" d="M420.755000,675.914000L415.329000,716.736000L414.813000,716.667000C406.038161,715.500413,399.869924,707.442040,401.035000,698.667000L401.035000,698.667000L404.349000,673.735000Z" transform="matrix(1 0 0 1 -223.64000000000001 -361.76900000000001)" fill="rgb(47,46,65)" stroke="none" stroke-width="1"/><path id="e1oWRIlF3P823" d="M193.872000,588.056000C193.872000,588.632000,192.972000,588.056000,192.886000,587.440000C192.253000,582.784000,188.557000,578.940000,184.252000,577.079000C179.947000,575.218000,175.042000,575.116000,170.380000,575.559000C163.329000,576.226000,155.415000,578.926000,152.836000,585.517000C152.226000,587.058000,146.511000,600.776000,147.068000,603.861000C148.568000,612.092000,154.199000,619.132000,161.020000,624.007000C167.841000,628.882000,175.810000,631.795000,183.760000,634.422000C204.778504,641.355051,226.343299,646.506570,248.226000,649.822000C251.789522,650.239476,255.310073,650.965535,258.748000,651.992000C261.787000,653.011000,264.630000,654.536000,267.601000,655.733000C274.508000,658.506000,281.939000,659.497000,289.301000,660.470000C290.556000,660.632000,291.995000,660.746000,292.922000,659.894000C294.122000,658.785000,293.722000,656.849000,293.382000,655.255000C292.133634,649.194432,293.181798,642.886205,296.323000,637.555000C297.556000,635.483000,299.158000,633.355000,298.923000,630.961000C298.647000,628.161000,295.861000,626.184000,293.086000,625.734000C290.311000,625.284000,287.492000,625.947000,284.705000,626.310000C283.750008,626.529468,282.749435,626.430429,281.856000,626.028000C281.441826,625.748459,281.066265,625.415598,280.739000,625.038000C276.802050,621.239865,270.866593,620.410112,266.039000,622.983000C265.009000,623.559000,263.451000,622.275000,262.378000,621.792000L250.278000,616.312000C236.372000,610.021000,222.397000,603.701000,207.685000,599.718000C206.511042,599.487034,205.395358,599.022874,204.404000,598.353000C203.673000,597.777000,203.149000,596.997000,202.476000,596.353000C201.008000,594.966000,198.963000,594.413000,197.204000,593.429000C195.445000,592.445000,193.469000,590.030000,193.872000,588.056000Z" transform="matrix(1 0 0 1 -126.22499999999999 -324.01200000000000)" fill="rgb(47,46,65)" stroke="none" stroke-width="1"/><circle id="e1oWRIlF3P824" r="8.628000" transform="matrix(1 0 0 1 98.98399999999999 247.09800000000001)" fill="rgb(251,190,190)" stroke="none" stroke-width="1"/><circle id="e1oWRIlF3P825" r="8.628000" transform="matrix(1 0 0 1 118.08799999999999 247.09800000000001)" fill="rgb(251,190,190)" stroke="none" stroke-width="1"/><path id="e1oWRIlF3P826" d="M314.248000,548.748000L195.716000,548.748000C192.834444,548.744694,190.499306,546.409556,190.496000,543.528000L190.496000,471.618000C190.499306,468.736444,192.834444,466.401306,195.716000,466.398000L314.248000,466.398000C317.129556,466.401306,319.464694,468.736444,319.468000,471.618000L319.468000,543.528000C319.464694,546.409556,317.129556,548.744694,314.248000,548.748000Z" transform="matrix(1 0 0 1 -142.90299999999999 -282.20800000000003)" fill="rgb(63,61,86)" stroke="none" stroke-width="1"/><circle id="e1oWRIlF3P827" r="3.454000" transform="matrix(1 0 0 1 111.79100000000000 225.36500000000001)" fill="rgb(255,255,255)" stroke="none" stroke-width="1"/></g><script><![CDATA[!function(t,n){"object"==typeof exports&&"undefined"!=typeof module?module.exports=n():"function"==typeof define&&define.amd?define(n):(t="undefined"!=typeof globalThis?globalThis:t||self).__SVGATOR_PLAYER__=n()}(this,(function(){"use strict";function t(n){return(t="function"==typeof Symbol&&"symbol"==typeof Symbol.iterator?function(t){return typeof t}:function(t){return t&&"function"==typeof Symbol&&t.constructor===Symbol&&t!==Symbol.prototype?"symbol":typeof t})(n)}function n(t,n){if(!(t instanceof n))throw new TypeError("Cannot call a class as a function")}function r(t,n){for(var r=0;r<n.length;r++){var e=n[r];e.enumerable=e.enumerable||!1,e.configurable=!0,"value"in e&&(e.writable=!0),Object.defineProperty(t,e.key,e)}}function e(t,n,e){return n&&r(t.prototype,n),e&&r(t,e),t}function i(t){return(i=Object.setPrototypeOf?Object.getPrototypeOf:function(t){return t.__proto__||Object.getPrototypeOf(t)})(t)}function u(t,n){return(u=Object.setPrototypeOf||function(t,n){return t.__proto__=n,t})(t,n)}function o(t,n){return!n||"object"!=typeof n&&"function"!=typeof n?function(t){if(void 0===t)throw new ReferenceError("this hasn't been initialised - super() hasn't been called");return t}(t):n}function a(t){var n=function(){if("undefined"==typeof Reflect||!Reflect.construct)return!1;if(Reflect.construct.sham)return!1;if("function"==typeof Proxy)return!0;try{return Boolean.prototype.valueOf.call(Reflect.construct(Boolean,[],(function(){}))),!0}catch(t){return!1}}();return function(){var r,e=i(t);if(n){var u=i(this).constructor;r=Reflect.construct(e,arguments,u)}else r=e.apply(this,arguments);return o(this,r)}}function l(t,n,r){return(l="undefined"!=typeof Reflect&&Reflect.get?Reflect.get:function(t,n,r){var e=function(t,n){for(;!Object.prototype.hasOwnProperty.call(t,n)&&null!==(t=i(t)););return t}(t,n);if(e){var u=Object.getOwnPropertyDescriptor(e,n);return u.get?u.get.call(r):u.value}})(t,n,r||t)}var f=Math.abs;function s(t){return t}function c(t,n,r){var e=1-r;return 3*r*e*(t*e+n*r)+r*r*r}function h(){var t=arguments.length>0&&void 0!==arguments[0]?arguments[0]:0,n=arguments.length>1&&void 0!==arguments[1]?arguments[1]:0,r=arguments.length>2&&void 0!==arguments[2]?arguments[2]:1,e=arguments.length>3&&void 0!==arguments[3]?arguments[3]:1;return t<0||t>1||r<0||r>1?null:f(t-n)<=1e-5&&f(r-e)<=1e-5?s:function(i){if(i<=0)return t>0?i*n/t:0===n&&r>0?i*e/r:0;if(i>=1)return r<1?1+(i-1)*(e-1)/(r-1):1===r&&t<1?1+(i-1)*(n-1)/(t-1):1;for(var u,o=0,a=1;o<a;){var l=c(t,r,u=(o+a)/2);if(f(i-l)<1e-5)break;l<i?o=u:a=u}return c(n,e,u)}}function v(){return 1}function y(t){return 1===t?1:0}function d(){var t=arguments.length>0&&void 0!==arguments[0]?arguments[0]:1,n=arguments.length>1&&void 0!==arguments[1]?arguments[1]:0;if(1===t){if(0===n)return y;if(1===n)return v}var r=1/t;return function(t){return t>=1?1:(t+=n*r)-t%r}}function g(t){var n=arguments.length>1&&void 0!==arguments[1]?arguments[1]:2;if(Number.isInteger(t))return t;var r=Math.pow(10,n);return Math.round(t*r)/r}var p=Math.PI/180;function m(t,n,r){return t>=.5?r:n}function b(t,n,r){return 0===t||n===r?n:t*(r-n)+n}function w(t,n,r){var e=b(t,n,r);return e<=0?0:e}function x(t,n,r){return 0===t?n:1===t?r:{x:b(t,n.x,r.x),y:b(t,n.y,r.y)}}function A(t,n,r){return 0===t?n:1===t?r:{x:w(t,n.x,r.x),y:w(t,n.y,r.y)}}function k(t,n,r){var e=function(t,n,r){return Math.round(b(t,n,r))}(t,n,r);return e<=0?0:e>=255?255:e}function _(t,n,r){return 0===t?n:1===t?r:{r:k(t,n.r,r.r),g:k(t,n.g,r.g),b:k(t,n.b,r.b),a:b(t,null==n.a?1:n.a,null==r.a?1:r.a)}}function S(t,n,r){if(0===t)return n;if(1===t)return r;var e=n.length;if(e!==r.length)return m(t,n,r);for(var i=[],u=0;u<e;u++)i.push(_(t,n[u],r[u]));return i}function O(t,n,r){var e=n.length;if(e!==r.length)return m(t,n,r);for(var i=new Array(e),u=0;u<e;u++)i[u]=b(t,n[u],r[u]);return i}function M(t,n){for(var r=[],e=0;e<t;e++)r.push(n);return r}function B(t,n){if(--n<=0)return t;var r=(t=Object.assign([],t)).length;do{for(var e=0;e<r;e++)t.push(t[e])}while(--n>0);return t}var I,j=function(){function t(r){n(this,t),this.list=r,this.length=r.length}return e(t,[{key:"setAttribute",value:function(t,n){for(var r=this.list,e=0;e<this.length;e++)r[e].setAttribute(t,n)}},{key:"removeAttribute",value:function(t){for(var n=this.list,r=0;r<this.length;r++)n[r].removeAttribute(t)}},{key:"style",value:function(t,n){for(var r=this.list,e=0;e<this.length;e++)r[e].style[t]=n}}]),t}(),E=/-./g,F=function(t,n){return n.toUpperCase()};function P(t){return"function"==typeof t?t:m}function R(t){return t?"function"==typeof t?t:Array.isArray(t)?function(t){var n=arguments.length>1&&void 0!==arguments[1]?arguments[1]:s;if(!Array.isArray(t))return n;switch(t.length){case 1:return d(t[0])||n;case 2:return d(t[0],t[1])||n;case 4:return h(t[0],t[1],t[2],t[3])||n}return n}(t,null):function(t,n){var r=arguments.length>2&&void 0!==arguments[2]?arguments[2]:s;switch(t){case"linear":return s;case"steps":return d(n.steps||1,n.jump||0)||r;case"bezier":case"cubic-bezier":return h(n.x1||0,n.y1||0,n.x2||0,n.y2||0)||r}return r}(t.type,t.value,null):null}function q(t,n,r){var e=arguments.length>3&&void 0!==arguments[3]&&arguments[3],i=n.length-1;if(t<=n[0].t)return e?[0,0,n[0].v]:n[0].v;if(t>=n[i].t)return e?[i,1,n[i].v]:n[i].v;var u,o=n[0],a=null;for(u=1;u<=i;u++){if(!(t>n[u].t)){a=n[u];break}o=n[u]}return null==a?e?[i,1,n[i].v]:n[i].v:o.t===a.t?e?[u,1,a.v]:a.v:(t=(t-o.t)/(a.t-o.t),o.e&&(t=o.e(t)),e?[u,t,r(t,o.v,a.v)]:r(t,o.v,a.v))}function T(t,n){var r=arguments.length>2&&void 0!==arguments[2]?arguments[2]:null;return t&&t.length?"function"!=typeof n?null:("function"!=typeof r&&(r=null),function(e){var i=q(e,t,n);return null!=i&&r&&(i=r(i)),i}):null}function N(t,n){return t.t-n.t}function C(n,r,e,i,u){var o,a="@"===e[0],l="#"===e[0],f=I[e],s=m;switch(a?(o=e.substr(1),e=o.replace(E,F)):l&&(e=e.substr(1)),t(f)){case"function":if(s=f(i,u,q,R,e,a,r,n),l)return s;break;case"string":s=T(i,P(f));break;case"object":if((s=T(i,P(f.i),f.f))&&"function"==typeof f.u)return f.u(r,s,e,a,n)}return s?function(t,n,r){var e=arguments.length>3&&void 0!==arguments[3]&&arguments[3];if(e)return t instanceof j?function(e){return t.style(n,r(e))}:function(e){return t.style[n]=r(e)};if(Array.isArray(n)){var i=n.length;return function(e){var u=r(e);if(null==u)for(var o=0;o<i;o++)t[o].removeAttribute(n);else for(var a=0;a<i;a++)t[a].setAttribute(n,u)}}return function(e){var i=r(e);null==i?t.removeAttribute(n):t.setAttribute(n,i)}}(r,e,s,a):null}function z(n,r,e,i){if(!i||"object"!==t(i))return null;var u=null,o=null;return Array.isArray(i)?o=function(t){if(!t||!t.length)return null;for(var n=0;n<t.length;n++)t[n].e&&(t[n].e=R(t[n].e));return t.sort(N)}(i):(o=i.keys,u=i.data||null),o?C(n,r,e,o,u):null}function L(t,n,r){if(!r)return null;var e=[];for(var i in r)if(r.hasOwnProperty(i)){var u=z(t,n,i,r[i]);u&&e.push(u)}return e.length?e:null}function D(t,n){if(!n.duration||n.duration<0)return null;var r=function(t,n){if(!n)return null;var r=[];if(Array.isArray(n))for(var e=n.length,i=0;i<e;i++){var u=n[i];if(2===u.length){var o=null;if("string"==typeof u[0])o=t.getElementById(u[0]);else if(Array.isArray(u[0])){o=[];for(var a=0;a<u[0].length;a++)if("string"==typeof u[0][a]){var l=t.getElementById(u[0][a]);l&&o.push(l)}o=o.length?1===o.length?o[0]:new j(o):null}if(o){var f=L(t,o,u[1]);f&&(r=r.concat(f))}}}else for(var s in n)if(n.hasOwnProperty(s)){var c=t.getElementById(s);if(c){var h=L(t,c,n[s]);h&&(r=r.concat(h))}}return r.length?r:null}(t,n.elements);return r?function(t,n){var r=arguments.length>2&&void 0!==arguments[2]?arguments[2]:1/0,e=arguments.length>3&&void 0!==arguments[3]?arguments[3]:1,i=arguments.length>4&&void 0!==arguments[4]&&arguments[4],u=arguments.length>5&&void 0!==arguments[5]?arguments[5]:1,o=t.length,a=e>0?n:0;i&&r%2==0&&(a=n-a);var l=null;return function(f,s){var c=f%n,h=1+(f-c)/n;s*=e,i&&h%2==0&&(s=-s);var v=!1;if(h>r)c=a,v=!0,-1===u&&(c=e>0?0:n);else if(s<0&&(c=n-c),c===l)return!1;l=c;for(var y=0;y<o;y++)t[y](c);return v}}(r,n.duration,n.iterations||1/0,n.direction||1,!!n.alternate,n.fill||1):null}var V=function(){function t(r,e){var i=arguments.length>2&&void 0!==arguments[2]?arguments[2]:{};n(this,t),this._id=0,this._running=!1,this._rollingBack=!1,this._animations=r,this.duration=e.duration,this.alternate=e.alternate,this.fill=e.fill,this.iterations=e.iterations,this.direction=i.direction||1,this.speed=i.speed||1,this.fps=i.fps||100,this.offset=i.offset||0,this.rollbackStartOffset=0}return e(t,[{key:"_rollback",value:function(){var t=this,n=1/0,r=null;this.rollbackStartOffset=this.offset,this._rollingBack||(this._rollingBack=!0,this._running=!0);this._id=window.requestAnimationFrame((function e(i){if(t._rollingBack){null==r&&(r=i);var u=i-r,o=t.rollbackStartOffset-u,a=Math.round(o*t.speed);if(a>t.duration&&n!=1/0){var l=!!t.alternate&&a/t.duration%2>1,f=a%t.duration;a=(f+=l?t.duration:0)||t.duration}var s=t.fps?1e3/t.fps:0,c=Math.max(0,a);if(c<n-s){t.offset=c,n=c;for(var h=t._animations,v=h.length,y=0;y<v;y++)h[y](c,t.direction)}var d=!1;if(t.iterations>0&&-1===t.fill){var g=t.iterations*t.duration,p=g==a;a=p?0:a,t.offset=p?0:t.offset,d=a>g}a>0&&t.offset>=a&&!d?t._id=window.requestAnimationFrame(e):t.stop()}}))}},{key:"_start",value:function(){var t=this,n=arguments.length>0&&void 0!==arguments[0]?arguments[0]:0,r=-1/0,e=null,i={},u=function u(o){t._running=!0,null==e&&(e=o);var a=Math.round((o-e+n)*t.speed),l=t.fps?1e3/t.fps:0;if(a>r+l&&!t._rollingBack){t.offset=a,r=a;for(var f=t._animations,s=f.length,c=0,h=0;h<s;h++)i[h]?c++:(i[h]=f[h](a,t.direction),i[h]&&c++);if(c===s)return void t._stop()}t._id=window.requestAnimationFrame(u)};this._id=window.requestAnimationFrame(u)}},{key:"_stop",value:function(){this._id&&window.cancelAnimationFrame(this._id),this._running=!1,this._rollingBack=!1}},{key:"play",value:function(){!this._rollingBack&&this._running||(this._rollingBack=!1,this.rollbackStartOffset>this.duration&&(this.offset=this.rollbackStartOffset-(this.rollbackStartOffset-this.offset)%this.duration,this.rollbackStartOffset=0),this._start(this.offset))}},{key:"stop",value:function(){this._stop(),this.offset=0,this.rollbackStartOffset=0;var t=this.direction,n=this._animations;window.requestAnimationFrame((function(){for(var r=0;r<n.length;r++)n[r](0,t)}))}},{key:"reachedToEnd",value:function(){return this.iterations>0&&this.offset>=this.iterations*this.duration}},{key:"restart",value:function(){this._stop(),this.offset=0,this._start()}},{key:"pause",value:function(){this._stop()}},{key:"reverse",value:function(){this.direction=-this.direction}}],[{key:"build",value:function(n,r){return(n=function(t,n){if(I=n,!t||!t.root||!Array.isArray(t.animations))return null;for(var r=document.getElementsByTagName("svg"),e=!1,i=0;i<r.length;i++)if(r[i].id===t.root&&!r[i].svgatorAnimation){(e=r[i]).svgatorAnimation=!0;break}if(!e)return null;var u=t.animations.map((function(t){return D(e,t)})).filter((function(t){return!!t}));return u.length?{element:e,animations:u,animationSettings:t.animationSettings,options:t.options||void 0}:null}(n,r))?{el:n.element,options:n.options||{},player:new t(n.animations,n.animationSettings,n.options)}:null}}]),t}();!function(){for(var t=0,n=["ms","moz","webkit","o"],r=0;r<n.length&&!window.requestAnimationFrame;++r)window.requestAnimationFrame=window[n[r]+"RequestAnimationFrame"],window.cancelAnimationFrame=window[n[r]+"CancelAnimationFrame"]||window[n[r]+"CancelRequestAnimationFrame"];window.requestAnimationFrame||(window.requestAnimationFrame=function(n){var r=Date.now(),e=Math.max(0,16-(r-t)),i=window.setTimeout((function(){n(r+e)}),e);return t=r+e,i},window.cancelAnimationFrame=window.clearTimeout)}();var G=/\.0+$/g;function Q(t){return Number.isInteger(t)?t+"":t.toFixed(6).replace(G,"")}function U(t){var n=arguments.length>1&&void 0!==arguments[1]?arguments[1]:" ";return t&&t.length?t.map(Q).join(n):""}function $(t){return Q(t.x)+","+Q(t.y)}function H(t){return t?null==t.a||t.a>=1?"rgb("+t.r+","+t.g+","+t.b+")":"rgba("+t.r+","+t.g+","+t.b+","+t.a+")":"transparent"}var Y={f:null,i:A,u:function(t,n){return function(r){var e=n(r);t.setAttribute("rx",Q(e.x)),t.setAttribute("ry",Q(e.y))}}},Z={f:null,i:function(t,n,r){return 0===t?n:1===t?r:{width:w(t,n.width,r.width),height:w(t,n.height,r.height)}},u:function(t,n){return function(r){var e=n(r);t.setAttribute("width",Q(e.width)),t.setAttribute("height",Q(e.height))}}},J=Math.sin,K=Math.cos,W=Math.acos,X=Math.asin,tt=Math.tan,nt=Math.atan2,rt=Math.PI/180,et=180/Math.PI,it=Math.sqrt,ut=function(){function t(){var r=arguments.length>0&&void 0!==arguments[0]?arguments[0]:1,e=arguments.length>1&&void 0!==arguments[1]?arguments[1]:0,i=arguments.length>2&&void 0!==arguments[2]?arguments[2]:0,u=arguments.length>3&&void 0!==arguments[3]?arguments[3]:1,o=arguments.length>4&&void 0!==arguments[4]?arguments[4]:0,a=arguments.length>5&&void 0!==arguments[5]?arguments[5]:0;n(this,t),this.m=[r,e,i,u,o,a],this.i=null,this.w=null,this.s=null}return e(t,[{key:"determinant",get:function(){var t=this.m;return t[0]*t[3]-t[1]*t[2]}},{key:"isIdentity",get:function(){if(null===this.i){var t=this.m;this.i=1===t[0]&&0===t[1]&&0===t[2]&&1===t[3]&&0===t[4]&&0===t[5]}return this.i}},{key:"point",value:function(t,n){var r=this.m;return{x:r[0]*t+r[2]*n+r[4],y:r[1]*t+r[3]*n+r[5]}}},{key:"translateSelf",value:function(){var t=arguments.length>0&&void 0!==arguments[0]?arguments[0]:0,n=arguments.length>1&&void 0!==arguments[1]?arguments[1]:0;if(!t&&!n)return this;var r=this.m;return r[4]+=r[0]*t+r[2]*n,r[5]+=r[1]*t+r[3]*n,this.w=this.s=this.i=null,this}},{key:"rotateSelf",value:function(){var t=arguments.length>0&&void 0!==arguments[0]?arguments[0]:0;if(t%=360){var n=J(t*=rt),r=K(t),e=this.m,i=e[0],u=e[1];e[0]=i*r+e[2]*n,e[1]=u*r+e[3]*n,e[2]=e[2]*r-i*n,e[3]=e[3]*r-u*n,this.w=this.s=this.i=null}return this}},{key:"scaleSelf",value:function(){var t=arguments.length>0&&void 0!==arguments[0]?arguments[0]:1,n=arguments.length>1&&void 0!==arguments[1]?arguments[1]:1;if(1!==t||1!==n){var r=this.m;r[0]*=t,r[1]*=t,r[2]*=n,r[3]*=n,this.w=this.s=this.i=null}return this}},{key:"skewSelf",value:function(t,n){if(n%=360,(t%=360)||n){var r=this.m,e=r[0],i=r[1],u=r[2],o=r[3];t&&(t=tt(t*rt),r[2]+=e*t,r[3]+=i*t),n&&(n=tt(n*rt),r[0]+=u*n,r[1]+=o*n),this.w=this.s=this.i=null}return this}},{key:"resetSelf",value:function(){var t=arguments.length>0&&void 0!==arguments[0]?arguments[0]:1,n=arguments.length>1&&void 0!==arguments[1]?arguments[1]:0,r=arguments.length>2&&void 0!==arguments[2]?arguments[2]:0,e=arguments.length>3&&void 0!==arguments[3]?arguments[3]:1,i=arguments.length>4&&void 0!==arguments[4]?arguments[4]:0,u=arguments.length>5&&void 0!==arguments[5]?arguments[5]:0,o=this.m;return o[0]=t,o[1]=n,o[2]=r,o[3]=e,o[4]=i,o[5]=u,this.w=this.s=this.i=null,this}},{key:"recomposeSelf",value:function(){var t=arguments.length>0&&void 0!==arguments[0]?arguments[0]:null,n=arguments.length>1&&void 0!==arguments[1]?arguments[1]:null,r=arguments.length>2&&void 0!==arguments[2]?arguments[2]:null,e=arguments.length>3&&void 0!==arguments[3]?arguments[3]:null,i=arguments.length>4&&void 0!==arguments[4]?arguments[4]:null;return this.isIdentity||this.resetSelf(),t&&(t.x||t.y)&&this.translateSelf(t.x,t.y),n&&this.rotateSelf(n),r&&(r.x&&this.skewSelf(r.x,0),r.y&&this.skewSelf(0,r.y)),!e||1===e.x&&1===e.y||this.scaleSelf(e.x,e.y),i&&(i.x||i.y)&&this.translateSelf(i.x,i.y),this}},{key:"decompose",value:function(){var t=arguments.length>0&&void 0!==arguments[0]?arguments[0]:0,n=arguments.length>1&&void 0!==arguments[1]?arguments[1]:0,r=this.m,e=r[0]*r[0]+r[1]*r[1],i=[[r[0],r[1]],[r[2],r[3]]],u=it(e);if(0===u)return{origin:{x:r[4],y:r[5]},translate:{x:t,y:n},scale:{x:0,y:0},skew:{x:0,y:0},rotate:0};i[0][0]/=u,i[0][1]/=u;var o=r[0]*r[3]-r[1]*r[2]<0;o&&(u=-u);var a=i[0][0]*i[1][0]+i[0][1]*i[1][1];i[1][0]-=i[0][0]*a,i[1][1]-=i[0][1]*a;var l=it(i[1][0]*i[1][0]+i[1][1]*i[1][1]);if(0===l)return{origin:{x:r[4],y:r[5]},translate:{x:t,y:n},scale:{x:u,y:0},skew:{x:0,y:0},rotate:0};i[1][0]/=l,i[1][1]/=l,a/=l;var f=0;return i[1][1]<0?(f=W(i[1][1])*et,i[0][1]<0&&(f=360-f)):f=X(i[0][1])*et,o&&(f=-f),a=nt(a,it(i[0][0]*i[0][0]+i[0][1]*i[0][1]))*et,o&&(a=-a),{origin:{x:r[4],y:r[5]},translate:{x:t,y:n},scale:{x:u,y:l},skew:{x:a,y:0},rotate:f}}},{key:"toString",value:function(){return null===this.s&&(this.s="matrix("+this.m.map(at).join(" ")+")"),this.s}}]),t}(),ot=/\.0+$/;function at(t){return Number.isInteger(t)?t:t.toFixed(14).replace(ot,"")}Object.freeze({M:2,L:2,Z:0,H:1,V:1,C:6,Q:4,T:2,S:4,A:7});var lt={},ft=null;function st(n){var r=function(){if(ft)return ft;if("object"!==("undefined"==typeof document?"undefined":t(document)))return{};var n=document.createElementNS("http://www.w3.org/2000/svg","svg");return n.style.position="absolute",n.style.opacity="0.01",n.style.zIndex="-9999",n.style.left="-9999px",n.style.width="1px",n.style.height="1px",ft={svg:n}}().svg;if(!r)return function(t){return null};var e=document.createElementNS(r.namespaceURI,"path");e.setAttributeNS(null,"d",n),e.setAttributeNS(null,"fill","none"),e.setAttributeNS(null,"stroke","none"),r.appendChild(e);var i=e.getTotalLength();return function(t){var n=e.getPointAtLength(i*t);return{x:n.x,y:n.y}}}function ct(t){return lt[t]?lt[t]:lt[t]=st(t)}function ht(t,n,r,e){if(!t||!e)return!1;var i=["M",t.x,t.y];if(n&&r&&(i.push("C"),i.push(n.x),i.push(n.y),i.push(r.x),i.push(r.y)),n?!r:r){var u=n||r;i.push("Q"),i.push(u.x),i.push(u.y)}return n||r||i.push("L"),i.push(e.x),i.push(e.y),i.join(" ")}function vt(t,n,r,e){var i=arguments.length>4&&void 0!==arguments[4]?arguments[4]:1,u=ht(t,n,r,e),o=ct(u);try{return o(i)}catch(t){return null}}function yt(t,n,r,e){var i=1-e;return i*i*t+2*i*e*n+e*e*r}function dt(t,n,r,e){return 2*(1-e)*(n-t)+2*e*(r-n)}function gt(t,n,r,e){var i=arguments.length>4&&void 0!==arguments[4]&&arguments[4],u=vt(t,n,null,r,e);return u||(u={x:yt(t.x,n.x,r.x,e),y:yt(t.y,n.y,r.y,e)}),i&&(u.a=pt(t,n,r,e)),u}function pt(t,n,r,e){return Math.atan2(dt(t.y,n.y,r.y,e),dt(t.x,n.x,r.x,e))}function mt(t,n,r,e,i){var u=i*i;return i*u*(e-t+3*(n-r))+3*u*(t+r-2*n)+3*i*(n-t)+t}function bt(t,n,r,e,i){var u=1-i;return 3*(u*u*(n-t)+2*u*i*(r-n)+i*i*(e-r))}function wt(t,n,r,e,i){var u=arguments.length>5&&void 0!==arguments[5]&&arguments[5],o=vt(t,n,r,e,i);return o||(o={x:mt(t.x,n.x,r.x,e.x,i),y:mt(t.y,n.y,r.y,e.y,i)}),u&&(o.a=xt(t,n,r,e,i)),o}function xt(t,n,r,e,i){return Math.atan2(bt(t.y,n.y,r.y,e.y,i),bt(t.x,n.x,r.x,e.x,i))}function At(t,n,r){return t+(n-t)*r}function kt(t,n,r){var e=arguments.length>3&&void 0!==arguments[3]&&arguments[3],i={x:At(t.x,n.x,r),y:At(t.y,n.y,r)};return e&&(i.a=_t(t,n)),i}function _t(t,n){return Math.atan2(n.y-t.y,n.x-t.x)}function St(t,n,r){var e=arguments.length>3&&void 0!==arguments[3]&&arguments[3];if(Mt(n)){if(Bt(r))return gt(n,r.start,r,t,e)}else if(Mt(r)){if(n.end)return gt(n,n.end,r,t,e)}else{if(n.end)return r.start?wt(n,n.end,r.start,r,t,e):gt(n,n.end,r,t,e);if(r.start)return gt(n,r.start,r,t,e)}return kt(n,r,t,e)}function Ot(t,n,r){var e=St(t,n,r,!0);return e.a=function(t){var n=arguments.length>1&&void 0!==arguments[1]&&arguments[1];return n?t+Math.PI:t}(e.a)/p,e}function Mt(t){return!t.type||"corner"===t.type}function Bt(t){return null!=t.start&&!Mt(t)}var It=new ut;var jt={f:function(t){return t?t.join(" "):""},i:function(n,r,e){if(0===n)return r;if(1===n)return e;var i=r.length;if(i!==e.length)return m(n,r,e);for(var u,o=new Array(i),a=0;a<i;a++){if((u=t(r[a]))!==t(e[a]))return m(n,r,e);if("number"===u)o[a]=b(n,r[a],e[a]);else{if(r[a]!==e[a])return m(n,r,e);o[a]=r[a]}}return o}},Et={f:null,i:O,u:function(t,n){return function(r){var e=n(r);t.setAttribute("x1",Q(e[0])),t.setAttribute("y1",Q(e[1])),t.setAttribute("x2",Q(e[2])),t.setAttribute("y2",Q(e[3]))}}},Ft={f:Q,i:b},Pt={f:Q,i:function(t,n,r){var e=b(t,n,r);return e<=0?0:e>=1?1:e}},Rt={f:function(t){var n=arguments.length>1&&void 0!==arguments[1]?arguments[1]:" ";return t&&t.length>0&&(t=t.map((function(t){return Math.floor(1e4*t)/1e4}))),U(t,n)},i:function(t,n,r){var e,i,u,o=n.length,a=r.length;if(o!==a)if(0===o)n=M(o=a,0);else if(0===a)a=o,r=M(o,0);else{var l=(u=(e=o)*(i=a)/function(t,n){for(var r;n;)r=n,n=t%n,t=r;return t||1}(e,i))<0?-u:u;n=B(n,Math.floor(l/o)),r=B(r,Math.floor(l/a)),o=a=l}for(var f=[],s=0;s<o;s++)f.push(g(w(t,n[s],r[s]),6));return f}};function qt(t,n,r,e,i,u,o,a){return n=function(t,n,r){for(var e,i,u,o=t.length-1,a={},l=0;l<=o;l++)(e=t[l]).e&&(e.e=n(e.e)),e.v&&"g"===(i=e.v).t&&i.r&&(u=r.getElementById(i.r))&&(a[i.r]=u.querySelectorAll("stop"));return a}(t,e,a),function(e){var i,u=r(e,t,Tt);return u?"c"===u.t?H(u.v):"g"===u.t?(n[u.r]&&function(t,n){for(var r=0,e=t.length;r<e;r++)t[r].setAttribute("stop-color",H(n[r]))}(n[u.r],u.v),(i=u.r)?"url(#"+i+")":"none"):"none":"none"}}function Tt(t,n,r){if(0===t)return n;if(1===t)return r;if(n&&r){var e=n.t;if(e===r.t)switch(n.t){case"c":return{t:e,v:_(t,n.v,r.v)};case"g":if(n.r===r.r)return{t:e,v:S(t,n.v,r.v),r:n.r}}}return m(t,n,r)}var Nt={blur:A,brightness:w,contrast:w,"drop-shadow":function(t,n,r){return 0===t?n:1===t?r:{blur:A(t,n.blur,r.blur),offset:x(t,n.offset,r.offset),color:_(t,n.color,r.color)}},grayscale:w,"hue-rotate":b,invert:w,opacity:w,saturate:w,sepia:w};function Ct(t,n,r){if(0===t)return n;if(1===t)return r;var e=n.length;if(e!==r.length)return m(t,n,r);for(var i,u=[],o=0;o<e;o++){if(n[o].type!==r[o].type)return n;if(!(i=Nt[n[o].type]))return m(t,n,r);u.push({type:n.type,value:i(t,n[o].value,r[o].value)})}return u}var zt={blur:function(t){return t?function(n){t.setAttribute("stdDeviation",$(n))}:null},brightness:function(t,n,r){return(t=Dt(r,n))?function(n){n=Q(n),t.map((function(t){return t.setAttribute("slope",n)}))}:null},contrast:function(t,n,r){return(t=Dt(r,n))?function(n){var r=Q((1-n)/2);n=Q(n),t.map((function(t){t.setAttribute("slope",n),t.setAttribute("intercept",r)}))}:null},"drop-shadow":function(t,n,r){var e=r.getElementById(n+"-blur");if(!e)return null;var i=r.getElementById(n+"-offset");if(!i)return null;var u=r.getElementById(n+"-flood");return u?function(t){e.setAttribute("stdDeviation",$(t.blur)),i.setAttribute("dx",Q(t.offset.x)),i.setAttribute("dy",Q(t.offset.y)),u.setAttribute("flood-color",H(t.color))}:null},grayscale:function(t){return t?function(n){t.setAttribute("values",U(function(t){return[.2126+.7874*(t=1-t),.7152-.7152*t,.0722-.0722*t,0,0,.2126-.2126*t,.7152+.2848*t,.0722-.0722*t,0,0,.2126-.2126*t,.7152-.7152*t,.0722+.9278*t,0,0,0,0,0,1,0]}(n)))}:null},"hue-rotate":function(t){return t?function(n){return t.setAttribute("values",Q(n))}:null},invert:function(t,n,r){return(t=Dt(r,n))?function(n){n=Q(n)+" "+Q(1-n),t.map((function(t){return t.setAttribute("tableValues",n)}))}:null},opacity:function(t,n,r){return(t=r.getElementById(n+"-A"))?function(n){return t.setAttribute("tableValues","0 "+Q(n))}:null},saturate:function(t){return t?function(n){return t.setAttribute("values",Q(n))}:null},sepia:function(t){return t?function(n){return t.setAttribute("values",U(function(t){return[.393+.607*(t=1-t),.769-.769*t,.189-.189*t,0,0,.349-.349*t,.686+.314*t,.168-.168*t,0,0,.272-.272*t,.534-.534*t,.131+.869*t,0,0,0,0,0,1,0]}(n)))}:null}};var Lt=["R","G","B"];function Dt(t,n){var r=Lt.map((function(r){return t.getElementById(n+"-"+r)||null}));return-1!==r.indexOf(null)?null:r}var Vt={fill:qt,"fill-opacity":Pt,stroke:qt,"stroke-opacity":Pt,"stroke-width":Ft,"stroke-dashoffset":{f:Q,i:b},"stroke-dasharray":Rt,opacity:Pt,transform:function(n,r,e,i){if(!(n=function(n,r){if(!n||"object"!==t(n))return null;var e=!1;for(var i in n)n.hasOwnProperty(i)&&(n[i]&&n[i].length?(n[i].forEach((function(t){t.e&&(t.e=r(t.e))})),e=!0):delete n[i]);return e?n:null}(n,i)))return null;var u=function(t,i,u){var o=arguments.length>3&&void 0!==arguments[3]?arguments[3]:null;return n[t]?e(i,n[t],u):r&&r[t]?r[t]:o};return r&&r.a&&n.o?function(t){var r=e(t,n.o,Ot);return It.recomposeSelf(r,u("r",t,b,0)+r.a,u("k",t,x),u("s",t,x),u("t",t,x)).toString()}:function(t){return It.recomposeSelf(u("o",t,St,null),u("r",t,b,0),u("k",t,x),u("s",t,x),u("t",t,x)).toString()}},"#filter":function(t,n,r,e,i,u,o,a){if(!n.items||!t||!t.length)return null;var l=function(t,n){var r=(t=t.map((function(t){return t&&zt[t[0]]?(n.getElementById(t[1]),zt[t[0]](n.getElementById(t[1]),t[1],n)):null}))).length;return function(n){for(var e=0;e<r;e++)t[e]&&t[e](n[e].value)}}(n.items,a);return l?(t=function(t,n){return t.map((function(t){return t.e=n(t.e),t}))}(t,e),function(n){l(r(n,t,Ct))}):null},"#line":Et,points:{f:U,i:O},d:jt,r:Ft,"#size":Z,"#radius":Y,_:function(t,n){if(Array.isArray(t))for(var r=0;r<t.length;r++)this[t[r]]=n;else this[t]=n}};return function(t){!function(t,n){if("function"!=typeof n&&null!==n)throw new TypeError("Super expression must either be null or a function");t.prototype=Object.create(n&&n.prototype,{constructor:{value:t,writable:!0,configurable:!0}}),n&&u(t,n)}(o,t);var r=a(o);function o(){return n(this,o),r.apply(this,arguments)}return e(o,null,[{key:"build",value:function(t){var n=l(i(o),"build",this).call(this,t,Vt);n.el,n.options;var r=n.player;return function(t,n,r){t.play()}(r),r}}]),o}(V)}));
__SVGATOR_PLAYER__.build({"root":"e1oWRIlF3P81","animations":[{"duration":5000,"direction":1,"iterations":0,"fill":1,"alternate":true,"speed":1,"elements":{"e1oWRIlF3P88":{"transform":{"data":{"o":{"x":47.6405,"y":312.6218989249999,"type":"corner"},"t":{"x":-182.98250000000002,"y":-662.1008989249999}},"keys":{"r":[{"t":0,"v":0},{"t":2500,"v":14.051275620243093},{"t":5000,"v":2.816260885242664}]}}},"e1oWRIlF3P89":{"transform":{"data":{"o":{"x":107.515907285,"y":87.019309995,"type":"corner"},"t":{"x":-107.515907285,"y":-87.019309995}},"keys":{"r":[{"t":0,"v":0},{"t":2500,"v":-7.3665382540322515},{"t":5000,"v":11.962434511593852}]}}},"e1oWRIlF3P813":{"transform":{"keys":{"o":[{"t":0,"v":{"x":-140.188,"y":-248.891,"type":"corner"}},{"t":2500,"v":{"x":-137.03779000000003,"y":-247.93599999999992,"type":"corner"}},{"t":5000,"v":{"x":-140.8250000000001,"y":-247.93599999999998,"type":"corner"}}]}}},"e1oWRIlF3P814":{"transform":{"data":{"t":{"x":-68.11743927,"y":-206.968719485}},"keys":{"o":[{"t":0,"v":{"x":68.11743927,"y":206.968719485,"type":"corner"}},{"t":2500,"v":{"x":71.75675530999999,"y":206.788408445,"type":"corner"}},{"t":5000,"v":{"x":68.26444882999999,"y":208.22491772499998,"type":"corner"}}]}}},"e1oWRIlF3P818":{"transform":{"data":{"t":{"x":-146.4908371,"y":-206.559570315}},"keys":{"o":[{"t":0,"v":{"x":146.4908371,"y":206.559570315,"type":"corner"}},{"t":2500,"v":{"x":144.91978656,"y":206.559570315,"type":"corner"}},{"t":5000,"v":{"x":147.83121344499997,"y":206.559570315,"type":"corner"}}]}}},"e1oWRIlF3P822":{"transform":{"data":{"o":{"x":187.18447571,"y":333.4665,"type":"corner"},"t":{"x":-410.82447571,"y":-695.2355}},"keys":{"r":[{"t":0,"v":0},{"t":2500,"v":-16.423996717487306},{"t":5000,"v":-1.54840953326167}]}}}}}],"options":{"start":"load","hover":"freeze","click":"freeze","scroll":25,"font":"embed","exportedIds":"unique","svgFormat":"animated","title":"imagen2"},"animationSettings":{"duration":5000,"direction":1,"iterations":0,"fill":1,"alternate":true,"speed":1}})]]></script></svg>