<svg xmlns="http://www.w3.org/2000/svg" xmlns:xlink="http://www.w3.org/1999/xlink" width="157" height="157" viewBox="0 0 157 157">
  <defs>
    <clipPath id="clip-path">
      <rect id="Rect치ngulo_22" data-name="Rect치ngulo 22" width="89" height="88" transform="translate(0.063 0.331)" fill="#fff"/>
    </clipPath>
  </defs>
  <g id="redux" transform="translate(-1420 -2641.267)">
    <rect id="Rect치ngulo_21" data-name="Rect치ngulo 21" width="157" height="157" rx="78.5" transform="translate(1420 2641.267)" fill="#fff"/>
    <g id="Enmascarar_grupo_6" data-name="Enmascarar grupo 6" transform="translate(1453.937 2674.937)" clip-path="url(#clip-path)">
      <path id="redux-2" data-name="redux" d="M61.367,58.721A6.331,6.331,0,0,0,60.691,46.1h-.225a6.306,6.306,0,0,0-6.086,6.537,6.473,6.473,0,0,0,1.8,4.17C52.351,64.356,46.49,69.879,37.7,74.5a30.478,30.478,0,0,1-18.371,3.494c-5.072-.676-9.016-2.93-11.5-6.65a16.556,16.556,0,0,1-.9-17.47,26.53,26.53,0,0,1,7.664-9.017c-.451-1.465-1.127-3.945-1.465-5.748C-3.213,50.944-1.522,66.949,3.437,74.5c3.719,5.636,11.27,9.13,19.61,9.13a27.722,27.722,0,0,0,6.762-.789,43.252,43.252,0,0,0,31.557-24.12ZM81.2,44.745C72.637,34.714,60.015,29.192,45.588,29.192h-1.8a6.193,6.193,0,0,0-5.523-3.381h-.226a6.314,6.314,0,0,0,.226,12.623h.225A6.349,6.349,0,0,0,44.01,34.6h2.029a42.956,42.956,0,0,1,24.006,7.326A30.192,30.192,0,0,1,81.992,56.354a15.623,15.623,0,0,1-.226,13.3A16.545,16.545,0,0,1,66.326,78.9a28.826,28.826,0,0,1-11.045-2.367c-1.24,1.127-3.494,2.93-5.072,4.058A34.8,34.8,0,0,0,64.748,84.08c10.82,0,18.822-5.974,21.865-11.947,3.268-6.537,3.043-17.808-5.41-27.388ZM23.949,60.637a6.331,6.331,0,0,0,6.311,6.086h.226A6.314,6.314,0,0,0,30.261,54.1h-.225a1.92,1.92,0,0,0-.789.112,41.3,41.3,0,0,1-5.861-25.021,30.234,30.234,0,0,1,6.649-17.47c3.268-4.17,9.58-6.2,13.863-6.311,11.946-.226,17.018,14.652,17.356,20.626,1.465.338,3.945,1.127,5.635,1.691C65.537,9.468,54.267,0,43.447,0,33.3,0,23.949,7.326,20.23,18.146c-5.184,14.427-1.8,28.29,4.508,39.222a5.064,5.064,0,0,0-.789,3.269Z" transform="translate(0 -0.24)" fill="#764abc"/>
    </g>
  </g>
</svg>
